<?xml version="1.0" encoding="UTF-8"?>
<svg xmlns="http://www.w3.org/2000/svg" width="200" height="33" viewBox="0 0 200 33" fill="none">
  <path d="M5.98706 19.2805L4.69843 21.8953C2.9317 21.0603 1.34476 19.7535 0.0922852 18.0993L1.96447 16.0005C3.02411 17.4623 4.40816 18.5903 5.98706 19.2805Z" fill="white"></path>
  <path d="M19.4604 10.0345C19.4604 11.9705 19.0544 13.832 18.2524 15.5704L18.2504 15.5744C18.2425 15.5928 18.2325 15.6121 18.2216 15.6315C18.2097 15.6539 18.1968 15.6804 18.1839 15.7089C16.8568 18.4886 14.6154 20.6793 11.8599 21.8949L10.2478 18.9145H10.2429L10.1972 18.8299C13.5255 17.5033 15.8095 14.316 16.0388 10.6499C16.0438 10.603 16.0488 10.5511 16.0497 10.492C16.0607 10.3391 16.0607 10.1843 16.0607 10.0345C16.0607 8.50403 15.6974 6.98582 15.0095 5.64388C14.3762 4.40791 13.4689 3.31867 12.378 2.48213L14.806 0C17.766 2.4648 19.4604 6.11361 19.4604 10.0345Z" fill="white"></path>
  <path d="M16.0924 32L8.5542 22.8211C8.43745 22.6815 8.26848 22.601 8.09234 22.601C7.91108 22.601 7.73801 22.6846 7.62741 22.8241L0.0922852 32L5.12867 22.9881L5.33758 22.6204L5.54035 22.2547L7.06007 19.5329L7.26898 19.1611L7.47585 18.7852L8.09234 17.6841L8.84094 19.0215L8.94949 19.2202L9.24032 19.7356V19.7407L10.8686 22.653L16.0924 32Z" fill="white"></path>
  <path d="M47.0497 19.0681L47.7432 18.8467C48.1849 18.6998 48.7429 18.3948 49.3947 17.9531C50.0465 17.5114 50.6881 16.9647 51.3298 16.3231C51.9714 15.6916 52.5181 14.8094 52.9813 13.673C53.4331 12.5468 53.6647 11.3065 53.6647 9.93964C53.6647 7.20484 52.7395 4.92302 50.8779 3.10434C49.0061 1.27436 46.6712 0.359375 43.8427 0.359375H31.0859V32.2981H34.5143V19.5312H34.5245V16.3242H34.5143V3.56748H43.8427C45.7879 3.56748 47.3445 4.14584 48.5012 5.2924C49.6579 6.44913 50.2363 7.99557 50.2363 9.95093C50.2363 11.8973 49.6579 13.4527 48.5012 14.5993C47.3445 15.756 45.7879 16.3242 43.8427 16.3242H41.8546L50.7299 32.2981H54.5797L47.0497 19.0681Z" fill="white"></path>
  <path d="M147.914 0.359375L134.684 17.7114L121.454 0.359375H118.488V32.2981H121.917V6.30115L134.684 23.1697L147.461 6.30115V32.2981H150.868V0.359375H147.914Z" fill="white"></path>
  <path d="M161.773 0.359375H158.345V32.2981H161.773V0.359375Z" fill="white"></path>
  <path d="M195.215 4.78505C192.019 1.58824 188.148 0 183.584 0C179.03 0 175.15 1.58824 171.963 4.78505C168.767 7.98186 167.167 11.8519 167.167 16.4054C167.167 20.9702 168.765 24.8402 171.963 28.037C175.15 31.2237 179.03 32.8221 183.584 32.8221C188.148 32.8221 192.019 31.2237 195.215 28.037C198.402 24.8402 200 20.9702 200 16.4054C200 11.8519 198.402 7.98186 195.215 4.78505ZM192.828 25.8286C190.315 28.3737 187.233 29.6354 183.585 29.6354C179.935 29.6354 176.855 28.3737 174.341 25.8286C171.838 23.2938 170.576 20.1501 170.576 16.4054C170.576 12.672 171.838 9.5283 174.341 6.99345C176.855 4.44842 179.935 3.18664 183.585 3.18664C187.233 3.18664 190.315 4.44842 192.828 6.99345C195.342 9.5283 196.593 12.672 196.593 16.4054C196.593 20.1501 195.342 23.2938 192.828 25.8286Z" fill="white"></path>
  <path d="M108.28 4.78505C105.083 1.58824 101.213 0 96.6485 0C93.4596 0 90.6141 0.796379 88.0928 2.3609C88.8722 3.15501 89.5601 3.98754 90.1803 4.84944C92.0893 3.74693 94.2424 3.18664 96.6485 3.18664C100.308 3.18664 103.389 4.44842 105.892 6.99345C108.406 9.5283 109.657 12.672 109.657 16.4054C109.657 20.1489 108.406 23.2938 105.892 25.8286C103.389 28.3737 100.307 29.6354 96.6485 29.6354C94.2424 29.6354 92.0893 29.0752 90.1803 27.9715C89.5613 28.8323 88.8733 29.6637 88.095 30.4567C90.6163 32.0189 93.4607 32.821 96.6485 32.821C101.212 32.821 105.082 31.2226 108.28 28.0359C111.467 24.8391 113.065 20.969 113.065 16.4043C113.064 11.8519 111.466 7.98186 108.28 4.78505Z" fill="white"></path>
  <path d="M85.7499 4.78505C82.5531 1.58824 78.6831 0 74.1183 0C69.5648 0 65.6947 1.58824 62.4979 4.78505C59.3113 7.98186 57.7129 11.8519 57.7129 16.4054C57.7129 20.9702 59.3124 24.8402 62.4979 28.037C65.6947 31.2237 69.5648 32.8221 74.1183 32.8221C78.6819 32.8221 82.552 31.2237 85.7499 28.037C88.9366 24.8402 90.535 20.9702 90.535 16.4054C90.535 11.8519 88.9366 7.98186 85.7499 4.78505ZM83.3619 25.8286C80.8587 28.3737 77.7771 29.6354 74.1183 29.6354C70.4685 29.6354 67.388 28.3737 64.8848 25.8286C62.3703 23.2938 61.1198 20.1501 61.1198 16.4054C61.1198 12.672 62.3714 9.5283 64.8848 6.99345C67.388 4.44842 70.4685 3.18664 74.1183 3.18664C77.7771 3.18664 80.8587 4.44842 83.3619 6.99345C85.8753 9.5283 87.1269 12.672 87.1269 16.4054C87.1269 20.1501 85.8753 23.2938 83.3619 25.8286Z" fill="white"></path>
</svg>
