<?xml version="1.0" encoding="UTF-8"?>
<!DOCTYPE svg PUBLIC "-//W3C//DTD SVG 1.1//EN" "http://www.w3.org/Graphics/SVG/1.1/DTD/svg11.dtd">
<!-- Creator: CorelDRAW 2021 (64-Bit) -->
<svg xmlns="http://www.w3.org/2000/svg" xml:space="preserve" width="213.101mm" height="118.498mm" version="1.1" style="shape-rendering:geometricPrecision; text-rendering:geometricPrecision; image-rendering:optimizeQuality; fill-rule:evenodd; clip-rule:evenodd"
viewBox="0 0 21334.85 11863.56"
 xmlns:xlink="http://www.w3.org/1999/xlink"
 xmlns:xodm="http://www.corel.com/coreldraw/odm/2003">
 <defs>
  <style type="text/css">
   <![CDATA[
    .str0 {stroke:white;stroke-width:7.63;stroke-miterlimit:22.9256}
    .fil4 {fill:none;fill-rule:nonzero}
    .fil2 {fill:#8DBF2D}
    .fil0 {fill:#FBBA00}
    .fil3 {fill:white}
    .fil1 {fill:#2B2A29;fill-rule:nonzero}
   ]]>
  </style>
 </defs>
 <g id="Plan_x0020_1">
  <metadata id="CorelCorpID_0Corel-Layer"/>
  <g id="_3279552199328">
   <g>
    <g>
     <polygon class="fil0" points="15668.57,4149 15462.66,3497 16000.62,3095.29 15335.06,3095.29 15130.6,2443.27 14924.72,3095.29 14259.17,3095.29 14797.11,3497 14591.23,4149 15130.6,3745.91 "/>
     <path id="_1" class="fil1" d="M15495.08 3487.17l205.91 652 -64.84 19.66 -205.91 -652 11.85 -36.28 52.98 16.62zm-64.84 19.66l-7.01 -22.2 18.86 -14.09 -11.85 36.28zm590.94 -385.09l-537.96 401.71 -41.13 -52.9 537.96 -401.71 20.56 -6.81 20.56 59.71zm-20.56 -59.71l100.53 0 -79.96 59.71 -20.56 -59.71zm-665.56 0l665.56 0 0 66.52 -665.56 0 -32.44 -23.49 32.44 -43.03zm0 66.52l-25.07 0 -7.37 -23.49 32.44 23.49zm-172.02 -695.05l204.46 652.03 -64.88 19.54 -204.46 -652.03 0.02 -19.6 64.86 0.06zm-64.86 -0.06l32.53 -103.03 32.33 103.09 -64.86 -0.06zm-205.88 652.03l205.88 -652.03 64.84 19.66 -205.88 652.03 -32.42 23.43 -32.42 -43.09zm64.84 19.66l-7.4 23.43 -25.02 0 32.42 -23.43zm-697.97 -43.09l665.55 0 0 66.52 -665.55 0 -20.56 -6.81 20.56 -59.71zm-20.56 59.71l-79.96 -59.71 100.53 0 -20.56 59.71zm537.93 401.71l-537.93 -401.71 41.13 -52.9 537.93 401.71 11.85 36.28 -52.98 16.62zm41.13 -52.9l18.86 14.09 -7.01 22.2 -11.85 -36.28zm-258.86 668.61l205.88 -652 64.84 19.66 -205.88 652 -11.84 16.61 -52.99 -36.27zm52.99 36.27l-84.35 63.03 31.36 -99.31 52.99 36.27zm539.37 -403.09l-539.37 403.09 -41.15 -52.88 539.37 -403.09 41.19 0.02 -0.04 52.86zm-41.15 -52.88l20.6 -15.4 20.58 15.42 -41.19 -0.02zm537.92 455.95l-537.96 -403.09 41.23 -52.84 537.96 403.09 11.8 16.59 -53.03 36.25zm53.03 -36.25l31.44 99.55 -84.47 -63.29 53.03 -36.25z"/>
    </g>
    <g>
     <polygon class="fil0" points="13779.68,2372.07 13573.78,1720.04 14111.73,1318.36 13446.16,1318.36 13241.71,666.33 13035.85,1318.36 12370.29,1318.36 12908.22,1720.04 12702.33,2372.07 13241.71,1968.97 "/>
     <path id="_1_0" class="fil1" d="M13606.2 1710.21l205.9 652.03 -64.84 19.66 -205.9 -652.03 11.85 -36.28 52.98 16.62zm-64.84 19.66l-7.01 -22.2 18.86 -14.09 -11.85 36.28zm590.93 -385.07l-537.95 401.69 -41.13 -52.9 537.95 -401.69 20.56 -6.81 20.56 59.71zm-20.56 -59.71l100.53 0 -79.96 59.71 -20.56 -59.71zm-665.57 0l665.57 0 0 66.52 -665.57 0 -32.44 -23.49 32.44 -43.03zm0 66.52l-25.07 0 -7.37 -23.49 32.44 23.49zm-172.02 -695.05l204.46 652.03 -64.88 19.54 -204.46 -652.03 0.02 -19.6 64.86 0.06zm-64.86 -0.06l32.53 -103.03 32.33 103.09 -64.86 -0.06zm-205.86 652.03l205.86 -652.03 64.84 19.66 -205.86 652.03 -32.42 23.43 -32.42 -43.09zm64.84 19.66l-7.4 23.43 -25.02 0 32.42 -23.43zm-697.98 -43.09l665.56 0 0 66.52 -665.56 0 -20.56 -6.81 20.56 -59.71zm-20.56 59.71l-79.96 -59.71 100.53 0 -20.56 59.71zm537.93 401.69l-537.93 -401.69 41.13 -52.9 537.93 401.69 11.85 36.28 -52.98 16.62zm41.13 -52.9l18.86 14.09 -7.01 22.2 -11.85 -36.28zm-258.87 668.64l205.89 -652.03 64.84 19.66 -205.89 652.03 -11.84 16.61 -52.99 -36.27zm52.99 36.27l-84.35 63.04 31.36 -99.32 52.99 36.27zm539.37 -403.1l-539.37 403.1 -41.15 -52.88 539.37 -403.1 41.19 0.02 -0.04 52.86zm-41.15 -52.88l20.6 -15.4 20.58 15.42 -41.19 -0.02zm537.93 455.96l-537.97 -403.1 41.23 -52.84 537.97 403.1 11.8 16.59 -53.03 36.25zm53.03 -36.25l31.44 99.54 -84.47 -63.28 53.03 -36.25z"/>
    </g>
    <g>
     <polygon class="fil0" points="10188.55,1818.59 10394.45,1166.57 9855.04,764.89 10522.05,764.89 10726.5,112.86 10932.38,764.89 11599.37,764.89 11060,1166.57 11265.88,1818.59 10726.5,1415.5 "/>
     <path id="_1_1" class="fil1" d="M10426.87 1176.4l-205.9 652.02 -64.84 -19.66 205.9 -652.02 52.95 -16.65 11.88 36.31zm-11.88 -36.31l18.9 14.08 -7.02 22.24 -11.88 -36.31zm-539.4 -401.69l539.4 401.69 -41.07 52.96 -539.4 -401.69 20.53 -59.74 20.53 6.78zm-41.07 52.96l-80.22 -59.74 100.76 0 -20.53 59.74zm687.54 6.78l-667 0 0 -66.52 667 0 32.44 43.03 -32.44 23.49zm32.44 -23.49l-7.37 23.49 -25.07 0 32.44 -23.49zm204.46 -652.03l-204.46 652.03 -64.88 -19.54 204.46 -652.03 64.86 -0.06 0.02 19.6zm-64.88 -19.54l32.33 -103.09 32.53 103.03 -64.86 0.06zm205.9 671.63l-205.88 -652.03 64.84 -19.66 205.88 652.03 -32.42 43.09 -32.42 -23.43zm32.42 23.43l-25.02 0 -7.4 -23.43 32.42 23.43zm666.99 0l-666.99 0 0 -66.52 666.99 0 20.53 59.74 -20.53 6.78zm0 -66.52l100.75 0 -80.21 59.74 -20.53 -59.74zm-559.91 408.46l539.37 -401.69 41.07 52.96 -539.37 401.69 -52.95 -16.65 11.88 -36.31zm-11.88 36.31l-7.02 -22.24 18.9 -14.08 -11.88 36.31zm205.88 652.02l-205.88 -652.02 64.84 -19.66 205.88 652.02 -52.99 36.27 -11.84 -16.61zm64.84 -19.66l31.36 99.31 -84.35 -63.03 52.99 -36.27zm-551.22 -419.7l539.37 403.09 -41.15 52.88 -539.37 -403.09 -0.04 -52.86 41.19 -0.02zm-41.19 0.02l20.58 -15.42 20.6 15.4 -41.19 0.02zm-537.95 403.09l537.95 -403.09 41.23 52.84 -537.95 403.09 -53.03 -36.25 11.8 -16.59zm41.23 52.84l-84.47 63.29 31.44 -99.55 53.03 36.25z"/>
    </g>
    <g>
     <polygon class="fil0" points="7575.46,2372.07 7781.36,1720.04 7241.97,1318.36 7908.95,1318.36 8113.41,666.33 8319.29,1318.36 8986.3,1318.36 8446.92,1720.04 8652.78,2372.07 8113.41,1968.97 "/>
     <path id="_1_2" class="fil1" d="M7813.78 1729.87l-205.9 652.03 -64.84 -19.66 205.9 -652.03 52.95 -16.65 11.88 36.31zm-11.88 -36.31l18.9 14.08 -7.02 22.24 -11.88 -36.31zm-539.39 -401.69l539.39 401.69 -41.07 52.96 -539.39 -401.69 20.53 -59.74 20.53 6.78zm-41.07 52.96l-80.22 -59.74 100.76 0 -20.53 59.74zm687.52 6.78l-666.98 0 0 -66.52 666.98 0 32.44 43.03 -32.44 23.49zm32.44 -23.49l-7.37 23.49 -25.07 0 32.44 -23.49zm204.46 -652.03l-204.46 652.03 -64.88 -19.54 204.46 -652.03 64.86 -0.06 0.02 19.6zm-64.88 -19.54l32.33 -103.08 32.53 103.02 -64.86 0.06zm205.91 671.63l-205.89 -652.03 64.84 -19.66 205.89 652.03 -32.42 43.09 -32.42 -23.43zm32.42 23.43l-25.02 0 -7.4 -23.43 32.42 23.43zm667 0l-667 0 0 -66.52 667 0 20.53 59.74 -20.53 6.78zm0 -66.52l100.75 0 -80.21 59.74 -20.53 -59.74zm-559.91 408.46l539.37 -401.69 41.07 52.96 -539.37 401.69 -52.95 -16.65 11.88 -36.31zm-11.88 36.31l-7.02 -22.24 18.9 -14.08 -11.88 36.31zm205.86 652.03l-205.86 -652.03 64.84 -19.66 205.86 652.03 -52.99 36.27 -11.84 -16.61zm64.84 -19.66l31.36 99.31 -84.35 -63.03 52.99 -36.27zm-551.22 -419.71l539.37 403.1 -41.15 52.88 -539.37 -403.1 -0.04 -52.86 41.19 -0.02zm-41.19 0.02l20.58 -15.42 20.6 15.4 -41.19 0.02zm-537.94 403.1l537.94 -403.1 41.23 52.84 -537.94 403.1 -53.03 -36.25 11.8 -16.59zm41.23 52.84l-84.47 63.29 31.44 -99.55 53.03 36.25z"/>
    </g>
    <g>
     <polygon class="fil0" points="5679.11,4156.29 5885.01,3504.28 5345.61,3102.59 6012.59,3102.59 6217.07,2450.57 6422.94,3102.59 7089.94,3102.59 6550.57,3504.28 6756.42,4156.29 6217.07,3753.21 "/>
     <path id="_1_3" class="fil1" d="M5917.42 3514.11l-205.9 652.02 -64.84 -19.66 205.9 -652.02 52.95 -16.65 11.88 36.31zm-11.88 -36.31l18.9 14.08 -7.02 22.24 -11.88 -36.31zm-539.39 -401.69l539.39 401.69 -41.07 52.96 -539.39 -401.69 20.53 -59.74 20.53 6.78zm-41.07 52.96l-80.22 -59.74 100.76 0 -20.53 59.74zm687.52 6.78l-666.98 0 0 -66.52 666.98 0 32.44 43.03 -32.44 23.49zm32.44 -23.49l-7.37 23.49 -25.07 0 32.44 -23.49zm204.48 -652.03l-204.48 652.03 -64.88 -19.54 204.48 -652.03 64.86 -0.06 0.02 19.6zm-64.88 -19.54l32.33 -103.08 32.53 103.02 -64.86 0.06zm205.89 671.63l-205.87 -652.03 64.84 -19.66 205.87 652.03 -32.42 43.09 -32.42 -23.43zm32.42 23.43l-25.02 0 -7.4 -23.43 32.42 23.43zm667 0l-667 0 0 -66.52 667 0 20.53 59.74 -20.53 6.78zm0 -66.52l100.75 0 -80.21 59.74 -20.53 -59.74zm-559.91 408.46l539.37 -401.69 41.07 52.96 -539.37 401.69 -52.95 -16.65 11.88 -36.31zm-11.88 36.31l-7.02 -22.24 18.9 -14.08 -11.88 36.31zm205.86 652.02l-205.86 -652.02 64.84 -19.66 205.86 652.02 -52.99 36.27 -11.84 -16.61zm64.84 -19.66l31.36 99.31 -84.35 -63.03 52.99 -36.27zm-551.2 -419.7l539.35 403.09 -41.15 52.88 -539.35 -403.09 -0.04 -52.86 41.19 -0.02zm-41.19 0.02l20.58 -15.42 20.6 15.4 -41.19 0.02zm-537.96 403.09l537.96 -403.09 41.23 52.84 -537.96 403.09 -53.03 -36.25 11.8 -16.59zm41.23 52.84l-84.47 63.28 31.44 -99.54 53.03 36.25z"/>
    </g>
    <g>
     <polygon class="fil0" points="6828.86,9443.44 6622.96,8791.41 7160.91,8389.73 6495.37,8389.73 6290.9,7737.71 6085.03,8389.73 5419.47,8389.73 5957.4,8791.41 5751.53,9443.44 6290.9,9040.34 "/>
     <path id="_1_4" class="fil1" d="M6655.38 8781.58l205.9 652.03 -64.84 19.66 -205.9 -652.03 11.85 -36.28 52.98 16.62zm-64.84 19.66l-7.01 -22.2 18.86 -14.09 -11.85 36.28zm590.93 -385.07l-537.95 401.69 -41.13 -52.9 537.95 -401.69 20.56 -6.81 20.56 59.71zm-20.56 -59.71l100.53 0 -79.96 59.71 -20.56 -59.71zm-665.54 0l665.54 0 0 66.52 -665.54 0 -32.44 -23.49 32.44 -43.03zm0 66.52l-25.07 0 -7.37 -23.49 32.44 23.49zm-172.04 -695.04l204.48 652.02 -64.88 19.54 -204.48 -652.02 0.02 -19.6 64.86 0.06zm-64.86 -0.06l32.53 -103.02 32.33 103.08 -64.86 -0.06zm-205.87 652.02l205.87 -652.02 64.84 19.66 -205.87 652.02 -32.42 23.43 -32.42 -43.09zm64.84 19.66l-7.4 23.43 -25.02 0 32.42 -23.43zm-697.98 -43.09l665.56 0 0 66.52 -665.56 0 -20.56 -6.81 20.56 -59.71zm-20.56 59.71l-79.96 -59.71 100.53 0 -20.56 59.71zm537.93 401.69l-537.93 -401.69 41.13 -52.9 537.93 401.69 11.85 36.28 -52.98 16.62zm41.13 -52.9l18.86 14.09 -7.01 22.2 -11.85 -36.28zm-258.85 668.64l205.87 -652.03 64.84 19.66 -205.87 652.03 -11.84 16.61 -52.99 -36.27zm52.99 36.27l-84.35 63.03 31.36 -99.31 52.99 36.27zm539.36 -403.1l-539.36 403.1 -41.15 -52.88 539.36 -403.1 41.19 0.02 -0.04 52.86zm-41.15 -52.88l20.6 -15.4 20.58 15.42 -41.19 -0.02zm537.92 455.96l-537.96 -403.1 41.23 -52.84 537.96 403.1 11.8 16.59 -53.03 36.25zm53.03 -36.25l31.44 99.55 -84.47 -63.29 53.03 -36.25z"/>
    </g>
    <g>
     <polygon class="fil0" points="7650.12,11227.65 7856.02,10575.63 7316.62,10173.94 7983.61,10173.94 8188.08,9521.93 8393.95,10173.94 9060.95,10173.94 8521.58,10575.63 8727.44,11227.65 8188.08,10824.56 "/>
     <path id="_1_5" class="fil1" d="M7888.44 10585.46l-205.9 652.03 -64.84 -19.66 205.9 -652.03 52.95 -16.65 11.88 36.31zm-11.88 -36.31l18.9 14.08 -7.02 22.24 -11.88 -36.31zm-539.39 -401.69l539.39 401.69 -41.07 52.96 -539.39 -401.69 20.53 -59.74 20.53 6.78zm-41.07 52.96l-80.22 -59.74 100.76 0 -20.53 59.74zm687.52 6.78l-666.98 0 0 -66.52 666.98 0 32.44 43.03 -32.44 23.49zm32.44 -23.49l-7.37 23.49 -25.07 0 32.44 -23.49zm204.48 -652.02l-204.48 652.02 -64.88 -19.54 204.48 -652.02 64.86 -0.06 0.02 19.6zm-64.88 -19.54l32.33 -103.08 32.53 103.02 -64.86 0.06zm205.89 671.62l-205.87 -652.02 64.84 -19.66 205.87 652.02 -32.42 43.09 -32.42 -23.43zm32.42 23.43l-25.02 0 -7.4 -23.43 32.42 23.43zm667 0l-667 0 0 -66.52 667 0 20.53 59.74 -20.53 6.78zm0 -66.52l100.75 0 -80.21 59.74 -20.53 -59.74zm-559.91 408.46l539.37 -401.69 41.07 52.96 -539.37 401.69 -52.95 -16.65 11.88 -36.31zm-11.88 36.31l-7.02 -22.24 18.9 -14.08 -11.88 36.31zm205.86 652.03l-205.86 -652.03 64.84 -19.66 205.86 652.03 -52.99 36.27 -11.84 -16.61zm64.84 -19.66l31.36 99.31 -84.35 -63.03 52.99 -36.27zm-551.2 -419.71l539.35 403.1 -41.15 52.88 -539.35 -403.1 -0.04 -52.86 41.19 -0.02zm-41.19 0.02l20.58 -15.42 20.6 15.4 -41.19 0.02zm-537.96 403.1l537.96 -403.1 41.23 52.84 -537.96 403.1 -53.03 -36.25 11.8 -16.59zm41.23 52.84l-84.47 63.29 31.44 -99.55 53.03 36.25z"/>
    </g>
    <g>
     <polygon class="fil0" points="11241.24,11773.85 11035.34,11121.83 11573.31,10720.15 10907.75,10720.15 10703.3,10068.12 10497.41,10720.15 9831.85,10720.15 10369.78,11121.83 10163.91,11773.85 10703.3,11370.76 "/>
     <path id="_1_6" class="fil1" d="M11067.76 11112l205.9 652.02 -64.84 19.66 -205.9 -652.02 11.85 -36.28 52.98 16.62zm-64.84 19.66l-7.01 -22.2 18.86 -14.09 -11.85 36.28zm590.95 -385.07l-537.97 401.69 -41.13 -52.9 537.97 -401.69 20.56 -6.81 20.56 59.71zm-20.56 -59.71l100.54 0 -79.97 59.71 -20.56 -59.71zm-665.56 0l665.56 0 0 66.52 -665.56 0 -32.44 -23.49 32.44 -43.03zm0 66.52l-25.07 0 -7.37 -23.49 32.44 23.49zm-172.02 -695.05l204.46 652.03 -64.88 19.54 -204.46 -652.03 0.02 -19.6 64.86 0.06zm-64.86 -0.06l32.53 -103.02 32.33 103.08 -64.86 -0.06zm-205.89 652.03l205.89 -652.03 64.84 19.66 -205.89 652.03 -32.42 23.43 -32.42 -43.09zm64.84 19.66l-7.4 23.43 -25.02 0 32.42 -23.43zm-697.98 -43.09l665.56 0 0 66.52 -665.56 0 -20.56 -6.81 20.56 -59.71zm-20.56 59.71l-79.96 -59.71 100.53 0 -20.56 59.71zm537.93 401.69l-537.93 -401.69 41.13 -52.9 537.93 401.69 11.85 36.28 -52.98 16.62zm41.13 -52.9l18.86 14.09 -7.01 22.2 -11.85 -36.28zm-258.85 668.63l205.87 -652.02 64.84 19.66 -205.87 652.02 -11.84 16.61 -52.99 -36.27zm52.99 36.27l-84.35 63.03 31.36 -99.31 52.99 36.27zm539.38 -403.09l-539.38 403.09 -41.15 -52.88 539.38 -403.09 41.19 0.02 -0.04 52.86zm-41.15 -52.88l20.6 -15.4 20.58 15.42 -41.19 -0.02zm537.9 455.95l-537.94 -403.09 41.23 -52.84 537.94 403.09 11.8 16.59 -53.03 36.25zm53.03 -36.25l31.44 99.55 -84.47 -63.29 53.03 -36.25z"/>
    </g>
    <g>
     <polygon class="fil0" points="12771.76,11220.37 12977.66,10568.35 12438.28,10166.66 13105.26,10166.66 13309.73,9514.65 13515.59,10166.66 14182.61,10166.66 13643.23,10568.35 13849.11,11220.37 13309.73,10817.28 "/>
     <path id="_1_7" class="fil1" d="M13010.08 10578.18l-205.9 652.03 -64.84 -19.66 205.9 -652.03 52.95 -16.65 11.88 36.31zm-11.88 -36.31l18.9 14.08 -7.02 22.24 -11.88 -36.31zm-539.38 -401.69l539.38 401.69 -41.07 52.96 -539.38 -401.69 20.53 -59.74 20.53 6.78zm-41.07 52.96l-80.22 -59.74 100.76 0 -20.53 59.74zm687.52 6.78l-666.98 0 0 -66.52 666.98 0 32.44 43.03 -32.44 23.49zm32.44 -23.49l-7.37 23.49 -25.07 0 32.44 -23.49zm204.48 -652.02l-204.48 652.02 -64.88 -19.54 204.48 -652.02 64.86 -0.06 0.02 19.6zm-64.88 -19.54l32.33 -103.08 32.53 103.02 -64.86 0.06zm205.88 671.62l-205.86 -652.02 64.84 -19.66 205.86 652.02 -32.42 43.09 -32.42 -23.43zm32.42 23.43l-25.02 0 -7.4 -23.43 32.42 23.43zm667.01 0l-667.01 0 0 -66.52 667.01 0 20.53 59.74 -20.53 6.78zm0 -66.52l100.75 0 -80.21 59.74 -20.53 -59.74zm-559.91 408.46l539.37 -401.69 41.07 52.96 -539.37 401.69 -52.95 -16.65 11.88 -36.31zm-11.88 36.31l-7.02 -22.24 18.9 -14.08 -11.88 36.31zm205.88 652.03l-205.88 -652.03 64.84 -19.66 205.88 652.03 -52.99 36.27 -11.84 -16.61zm64.84 -19.66l31.36 99.31 -84.35 -63.03 52.99 -36.27zm-551.22 -419.71l539.37 403.1 -41.15 52.88 -539.37 -403.1 -0.04 -52.86 41.19 -0.02zm-41.19 0.02l20.58 -15.42 20.6 15.4 -41.19 0.02zm-537.97 403.1l537.97 -403.1 41.23 52.84 -537.97 403.1 -53.03 -36.25 11.8 -16.59zm41.23 52.84l-84.47 63.28 31.44 -99.54 53.03 36.25z"/>
    </g>
    <g>
     <polygon class="fil0" points="15743.22,9443.44 15537.32,8791.41 16075.28,8389.73 15409.72,8389.73 15205.26,7737.71 14999.39,8389.73 14333.83,8389.73 14871.76,8791.41 14665.89,9443.44 15205.26,9040.34 "/>
     <path id="_1_8" class="fil1" d="M15569.74 8781.58l205.9 652.03 -64.84 19.66 -205.9 -652.03 11.85 -36.28 52.98 16.62zm-64.84 19.66l-7.01 -22.2 18.86 -14.09 -11.85 36.28zm590.93 -385.07l-537.95 401.69 -41.13 -52.9 537.95 -401.69 20.56 -6.81 20.56 59.71zm-20.56 -59.71l100.53 0 -79.96 59.71 -20.56 -59.71zm-665.56 0l665.56 0 0 66.52 -665.56 0 -32.44 -23.49 32.44 -43.03zm0 66.52l-25.07 0 -7.37 -23.49 32.44 23.49zm-172.02 -695.04l204.46 652.02 -64.88 19.54 -204.46 -652.02 0.02 -19.6 64.86 0.06zm-64.86 -0.06l32.53 -103.03 32.33 103.09 -64.86 -0.06zm-205.87 652.02l205.87 -652.02 64.84 19.66 -205.87 652.02 -32.42 23.43 -32.42 -43.09zm64.84 19.66l-7.4 23.43 -25.02 0 32.42 -23.43zm-697.98 -43.09l665.56 0 0 66.52 -665.56 0 -20.56 -6.81 20.56 -59.71zm-20.56 59.71l-79.96 -59.71 100.53 0 -20.56 59.71zm537.93 401.69l-537.93 -401.69 41.13 -52.9 537.93 401.69 11.85 36.28 -52.98 16.62zm41.13 -52.9l18.86 14.09 -7.01 22.2 -11.85 -36.28zm-258.86 668.64l205.88 -652.03 64.84 19.66 -205.88 652.03 -11.84 16.61 -52.99 -36.27zm52.99 36.27l-84.35 63.03 31.36 -99.31 52.99 36.27zm539.37 -403.1l-539.37 403.1 -41.15 -52.88 539.37 -403.1 41.19 0.02 -0.04 52.86zm-41.15 -52.88l20.6 -15.4 20.58 15.42 -41.19 -0.02zm537.92 455.96l-537.96 -403.1 41.23 -52.84 537.96 403.1 11.8 16.59 -53.03 36.25zm53.03 -36.25l31.44 99.55 -84.47 -63.29 53.03 -36.25z"/>
    </g>
    <g>
     <path class="fil2" d="M20790.48 5444.61l-808.91 0 0 1004.25 1005.02 0 -465.75 765.16 -1005.02 0c-98.06,0 -343.21,-23.91 -343.21,-286.93l0 -1434.64 -490.25 0 735.39 -789.06 563.81 0 0 549.94 343.17 -549.94 956.03 0 -490.29 741.23z"/>
     <path id="_1_9" class="fil1" d="M19981.57 5415.8l808.91 0 0 57.61 -808.91 0 -29.39 -28.8 29.39 -28.8zm-29.39 28.8l0 -28.8 29.39 0 -29.39 28.8zm0 1004.25l0 -1004.25 58.79 0 0 1004.25 -29.39 28.8 -29.39 -28.8zm29.39 28.8l-29.39 0 0 -28.8 29.39 28.8zm1005.02 0l-1005.02 0 0 -57.61 1005.02 0 25.25 43.56 -25.25 14.05zm0 -57.61l51.76 0 -26.51 43.56 -25.25 -43.56zm-491 779.2l465.75 -765.16 50.5 29.51 -465.75 765.16 -25.25 14.05 -25.25 -43.56zm50.5 29.51l-8.55 14.05 -16.7 0 25.25 -14.05zm-1030.27 -43.56l1005.02 0 0 57.61 -1005.02 0 0 0 0 -57.61zm-372.6 -258.13l58.79 0 0 0 0.66 22.29 1.9 20.81 3.06 19.4 4.14 18.06 5.14 16.8 6.05 15.58 6.89 14.44 7.68 13.4 8.41 12.38 9.08 11.47 9.73 10.59 10.32 9.8 10.87 8.99 11.39 8.27 11.84 7.58 12.23 6.89 12.58 6.25 12.85 5.62 13.07 5.01 13.22 4.46 13.28 3.89 13.29 3.39 13.21 2.9 13.04 2.45 12.82 2.03 12.52 1.64 12.13 1.29 11.68 0.98 11.16 0.69 10.56 0.45 9.87 0.24 9.12 0.08 0 57.61 -10.1 -0.08 -10.93 -0.26 -11.68 -0.51 -12.36 -0.77 -13.01 -1.08 -13.56 -1.45 -14.03 -1.84 -14.45 -2.29 -14.8 -2.77 -15.07 -3.32 -15.29 -3.89 -15.42 -4.54 -15.5 -5.22 -15.49 -5.95 -15.42 -6.74 -15.27 -7.57 -15.02 -8.47 -14.71 -9.4 -14.3 -10.39 -13.82 -11.45 -13.21 -12.52 -12.51 -13.64 -11.72 -14.8 -10.81 -15.95 -9.82 -17.14 -8.75 -18.32 -7.57 -19.52 -6.34 -20.72 -5.03 -21.93 -3.66 -23.17 -2.22 -24.38 -0.76 -25.65 0 0zm58.79 -1434.64l0 1434.64 -58.79 0 0 -1434.64 29.39 -28.8 29.39 28.8zm-29.39 -28.8l29.39 0 0 28.8 -29.39 -28.8zm-490.25 0l490.25 0 0 57.61 -490.25 0 -21.71 -48.24 21.71 -9.37zm0 57.61l-66.66 0 44.95 -48.24 21.71 48.24zm757.1 -798.43l-735.39 789.06 -43.41 -38.87 735.39 -789.06 21.71 -9.37 21.71 48.24zm-43.41 -38.87l8.73 -9.37 12.98 0 -21.71 9.37zm585.52 48.24l-563.81 0 0 -57.61 563.81 0 29.39 28.8 -29.39 28.8zm0 -57.61l29.39 0 0 28.8 -29.39 -28.8zm-29.39 578.74l0 -549.94 58.79 0 0 549.94 -4.31 15.03 -54.47 -15.03zm54.47 15.03l-54.47 87.29 0 -102.32 54.47 15.03zm343.17 -549.94l-343.17 549.94 -50.16 -30.05 343.17 -549.94 25.08 -13.78 25.08 43.83zm-50.16 -30.05l8.6 -13.78 16.48 0 -25.08 13.78zm981.11 43.83l-956.03 0 0 -57.61 956.03 0 24.67 44.47 -24.67 13.14zm0 -57.61l54.08 0 -29.41 44.47 -24.67 -44.47zm-514.96 754.36l490.29 -741.23 49.34 31.34 -490.29 741.23 -24.67 13.14 -24.67 -44.47zm49.34 31.34l-8.69 13.14 -15.98 0 24.67 -13.14z"/>
    </g>
    <g>
     <path class="fil2" d="M16990.97 5492.44l0 1721.57 -857.93 0 0 -1769.41 857.93 -741.23 0 549.94 318.67 -549.94 318.68 0c686.36,0 931.49,502.11 931.49,789.06l0 1004.24 563.79 0 -588.31 741.25 -490.25 0c-49.04,0 -343.19,-47.83 -343.19,-334.78l0 -1410.71 -710.88 0z"/>
     <path id="_1_10" class="fil1" d="M16961.57 7214.01l0 -1721.57 58.79 0 0 1721.57 -29.39 28.8 -29.39 -28.8zm58.79 0l0 28.8 -29.39 0 29.39 -28.8zm-887.33 -28.8l857.93 0 0 57.61 -857.93 0 -29.39 -28.8 29.39 -28.8zm0 57.61l-29.39 0 0 -28.8 29.39 28.8zm29.39 -1798.21l0 1769.41 -58.79 0 0 -1769.41 9.95 -21.61 48.84 21.61zm-58.79 0l0 -13.01 9.95 -8.6 -9.95 21.61zm906.77 -719.62l-857.93 741.23 -38.89 -43.21 857.93 -741.23 48.84 21.61 -9.95 21.61zm-38.89 -43.21l48.84 -42.19 0 63.79 -48.84 -21.61zm-9.95 571.54l0 -549.94 58.79 0 0 549.94 -3.83 14.23 -54.95 -14.23zm54.95 14.23l-54.95 94.84 0 -109.07 54.95 14.23zm318.67 -549.94l-318.67 549.94 -51.12 -28.45 318.67 -549.94 25.56 -14.58 25.56 43.03zm-51.12 -28.45l8.45 -14.58 17.11 0 -25.56 14.58zm344.24 43.03l-318.68 0 0 -57.61 318.68 0 0 0 0 57.61zm960.88 760.26l-58.79 0 0 0 -0.68 -26.04 -2.1 -27.26 -3.53 -28.33 -5.04 -29.23 -6.56 -30.01 -8.12 -30.65 -9.73 -31.14 -11.36 -31.5 -13.04 -31.72 -14.74 -31.79 -16.47 -31.77 -18.23 -31.57 -20.04 -31.28 -21.88 -30.83 -23.73 -30.27 -25.64 -29.57 -27.56 -28.75 -29.54 -27.82 -31.55 -26.75 -33.6 -25.57 -35.67 -24.25 -37.82 -22.83 -39.99 -21.26 -42.21 -19.58 -44.47 -17.76 -46.79 -15.84 -49.15 -13.77 -51.57 -11.56 -54.01 -9.23 -56.53 -6.77 -59.07 -4.15 -61.68 -1.42 0 -57.61 64.44 1.48 61.95 4.36 59.47 7.11 57.02 9.75 54.59 12.24 52.19 14.61 49.82 16.86 47.45 18.96 45.13 20.94 42.83 22.77 40.55 24.47 38.29 26.03 36.08 27.45 33.89 28.73 31.73 29.88 29.6 30.88 27.52 31.76 25.47 32.47 23.46 33.07 21.48 33.52 19.55 33.85 17.65 34.03 15.8 34.09 13.98 34.02 12.2 33.82 10.47 33.5 8.76 33.05 7.1 32.46 5.46 31.78 3.87 30.96 2.3 30 0.76 28.98 0 0zm-58.79 1004.24l0 -1004.24 58.79 0 0 1004.24 -29.39 28.8 -29.39 -28.8zm29.39 28.8l-29.39 0 0 -28.8 29.39 28.8zm563.79 0l-563.79 0 0 -57.61 563.79 0 23.21 46.49 -23.21 11.11zm0 -57.61l60.11 0 -36.9 46.49 -23.21 -46.49zm-611.52 752.36l588.31 -741.25 46.41 35.38 -588.31 741.25 -23.21 11.11 -23.21 -46.49zm46.41 35.38l-8.82 11.11 -14.39 0 23.21 -11.11zm-513.45 -46.49l490.25 0 0 57.61 -490.25 0 0 0 0 -57.61zm-372.58 -305.97l58.79 0 0 0 0.78 24.38 2.28 22.93 3.66 21.54 4.95 20.25 6.12 18.98 7.22 17.81 8.2 16.7 9.12 15.63 9.97 14.62 10.74 13.67 11.41 12.75 12.04 11.87 12.58 11.03 13.03 10.21 13.41 9.41 13.68 8.66 13.86 7.9 13.95 7.19 13.95 6.49 13.83 5.82 13.65 5.18 13.33 4.57 12.91 3.98 12.4 3.41 11.76 2.88 11.06 2.39 10.2 1.93 9.26 1.49 8.17 1.07 6.96 0.72 5.56 0.38 3.76 0.12 0 57.61 -6.83 -0.18 -7.72 -0.54 -8.8 -0.9 -9.85 -1.31 -10.86 -1.75 -11.78 -2.21 -12.62 -2.73 -13.41 -3.28 -14.07 -3.89 -14.66 -4.51 -15.13 -5.19 -15.53 -5.9 -15.83 -6.66 -16.03 -7.47 -16.13 -8.31 -16.12 -9.2 -16.02 -10.14 -15.81 -11.11 -15.51 -12.15 -15.07 -13.22 -14.55 -14.34 -13.88 -15.5 -13.09 -16.67 -12.19 -17.9 -11.16 -19.13 -10.02 -20.38 -8.76 -21.64 -7.38 -22.93 -5.91 -24.18 -4.33 -25.47 -2.66 -26.75 -0.9 -28.04 0 0zm58.79 -1410.71l0 1410.71 -58.79 0 0 -1410.71 29.39 -28.8 29.39 28.8zm-29.39 -28.8l29.39 0 0 28.8 -29.39 -28.8zm-710.88 0l710.88 0 0 57.61 -710.88 0 -29.39 -28.8 29.39 -28.8zm-29.39 28.8l0 -28.8 29.39 0 -29.39 28.8z"/>
    </g>
    <g>
     <polygon class="fil2" points="14564.18,5970.64 14809.32,5635.92 16084.02,5635.92 15716.3,6257.57 14588.7,6257.57 14588.7,6496.68 16084.02,6496.68 15544.72,7237.93 13804.3,7237.93 13804.3,5420.7 14564.18,4727.28 14564.18,5253.31 14956.41,4703.38 16280.09,4703.38 15814.36,5420.7 14564.18,5420.7 "/>
     <path id="_1_11" class="fil1" d="M14833.2 5652.72l-245.14 334.73 -47.76 -33.6 245.14 -334.73 23.88 -12 23.88 45.6zm-47.76 -33.6l8.79 -12 15.09 0 -23.88 12zm1298.57 45.6l-1274.7 0 0 -57.61 1274.7 0 25.43 43.25 -25.43 14.36zm0 -57.61l51.01 0 -25.58 43.25 -25.43 -43.25zm-393.15 636.01l367.72 -621.65 50.86 28.89 -367.72 621.65 -25.43 14.36 -25.43 -43.25zm50.86 28.89l-8.49 14.36 -16.94 0 25.43 -14.36zm-1153.04 -43.25l1127.61 0 0 57.61 -1127.61 0 -29.39 -28.8 29.39 -28.8zm-29.39 28.8l0 -28.8 29.39 0 -29.39 28.8zm0 239.12l0 -239.12 58.79 0 0 239.12 -29.39 28.8 -29.39 -28.8zm29.39 28.8l-29.39 0 0 -28.8 29.39 28.8zm1495.32 0l-1495.32 0 0 -57.61 1495.32 0 23.94 45.52 -23.94 12.08zm0 -57.61l57.06 0 -33.12 45.52 -23.94 -45.52zm-563.23 753.33l539.29 -741.25 47.88 33.44 -539.29 741.25 -23.94 12.08 -23.94 -45.52zm47.88 33.44l-8.79 12.08 -15.15 0 23.94 -12.08zm-1764.36 -45.52l1740.43 0 0 57.61 -1740.43 0 -29.39 -28.8 29.39 -28.8zm0 57.61l-29.39 0 0 -28.8 29.39 28.8zm29.39 -1846.04l0 1817.23 -58.79 0 0 -1817.23 9.36 -21.08 49.43 21.08zm-58.79 0l0 -12.54 9.36 -8.54 -9.36 21.08zm809.31 -672.33l-759.88 693.41 -40.07 -42.17 759.88 -693.41 49.43 21.08 -9.36 21.08zm-40.07 -42.17l49.43 -45.1 0 66.19 -49.43 -21.08zm-9.36 547.11l0 -526.03 58.79 0 0 526.03 -5.3 16.5 -53.49 -16.5zm53.49 16.5l-53.49 75 0 -91.5 53.49 16.5zm392.23 -549.94l-392.23 549.94 -48.2 -33 392.23 -549.94 24.1 -12.3 24.1 45.3zm-48.2 -33l8.78 -12.3 15.32 0 -24.1 12.3zm1347.78 45.3l-1323.68 0 0 -57.61 1323.68 0 24.8 44.27 -24.8 13.34zm0 -57.61l53.54 0 -28.74 44.27 -24.8 -44.27zm-490.54 730.66l465.74 -717.32 49.6 30.94 -465.74 717.32 -24.8 13.34 -24.8 -44.27zm49.6 30.94l-8.66 13.34 -16.14 0 24.8 -13.34zm-1274.98 -44.27l1250.18 0 0 57.61 -1250.18 0 -29.39 -28.8 29.39 -28.8zm-29.39 28.8l0 -28.8 29.39 0 -29.39 28.8zm0 549.95l0 -549.95 58.79 0 0 549.95 -5.52 16.8 -53.27 -16.8zm53.27 16.8l-53.27 72.73 0 -89.53 53.27 16.8z"/>
    </g>
    <g>
     <path class="fil2" d="M11769.71 6855.34l0 382.59 -759.89 0 0 -1841.14 808.92 -741.25 956 0c1225.65,0 1225.65,2582.39 98.05,2582.39l-931.47 0 0 -549.96 -171.61 167.36z"/>
     <path id="_1_12" class="fil1" d="M11740.32 7237.93l0 -382.59 58.79 0 0 382.59 -29.39 28.8 -29.39 -28.8zm58.79 0l0 28.8 -29.39 0 29.39 -28.8zm-789.28 -28.8l759.89 0 0 57.61 -759.89 0 -29.39 -28.8 29.39 -28.8zm0 57.61l-29.39 0 0 -28.8 29.39 28.8zm29.39 -1869.95l0 1841.14 -58.79 0 0 -1841.14 9.32 -21.04 49.47 21.04zm-58.79 0l0 -12.5 9.32 -8.54 -9.32 21.04zm858.38 -720.2l-808.92 741.25 -40.15 -42.09 808.92 -741.25 20.07 -7.76 20.07 49.85zm-40.15 -42.09l8.47 -7.76 11.6 0 -20.07 7.76zm976.07 49.85l-956 0 0 -57.61 956 0 0 0 0 57.61zm98.05 2582.39l0 -57.61 0 0 98.06 -7.1 91.39 -20.6 85 -33.23 78.81 -45.04 72.71 -56.1 66.61 -66.41 60.43 -75.9 54.14 -84.49 47.75 -92.2 41.27 -98.96 34.71 -104.76 28.07 -109.61 21.38 -113.47 14.68 -116.38 7.91 -118.32 1.13 -119.28 -5.68 -119.28 -12.48 -118.31 -19.31 -116.36 -26.13 -113.46 -32.94 -109.59 -39.76 -104.75 -46.5 -98.96 -53.24 -92.21 -59.92 -84.55 -66.54 -76 -73.11 -66.56 -79.7 -56.32 -86.31 -45.27 -93.1 -33.43 -100.07 -20.74 -107.31 -7.15 0 -57.61 115.32 7.67 108.24 22.45 100.93 36.23 93.44 48.98 85.85 60.64 78.24 71.2 70.66 80.68 63.18 89.13 55.78 96.61 48.47 103.11 41.24 108.66 34.06 113.29 26.95 116.97 19.87 119.75 12.82 121.59 5.84 122.5 -1.17 122.5 -8.13 121.58 -15.1 119.73 -22.05 116.96 -29.01 113.27 -35.99 108.65 -43.01 103.11 -50.05 96.62 -57.17 89.19 -64.35 80.78 -71.59 71.35 -78.88 60.85 -86.14 49.21 -93.27 36.43 -100.18 22.59 -106.75 7.72 0 0zm-931.47 -57.61l931.47 0 0 57.61 -931.47 0 -29.39 -28.8 29.39 -28.8zm0 57.61l-29.39 0 0 -28.8 29.39 28.8zm29.39 -578.76l0 549.96 -58.79 0 0 -549.96 8.66 -20.42 50.13 20.42zm-50.13 -20.42l50.13 -48.89 0 69.31 -50.13 -20.42zm-171.61 167.36l171.61 -167.36 41.47 40.85 -171.61 167.36 -50.13 -20.42 8.66 -20.42zm-8.66 20.42l0 -11.97 8.66 -8.45 -8.66 20.42z"/>
    </g>
    <g>
     <polygon class="fil3" points="12359.57,6393.81 13134.15,6960.47 12843.69,6129.38 13579.53,5600.47 12669.38,5600.47 12359.57,4750.47 12030.37,5581.58 11139.61,5581.58 11856.1,6110.48 11546.26,7017.13 "/>
     <path id="_1_13" class="fil1" d="M13116.57 6983.56l-774.58 -566.66 35.16 -46.17 774.58 566.66 10.23 13.76 -45.39 32.42zm45.39 -32.42l30.82 88.17 -76.21 -55.75 45.39 -32.42zm-290.46 -831.09l290.46 831.09 -55.62 18.66 -290.46 -831.09 10.42 -32.56 45.2 13.9zm-55.62 18.66l-7 -20.03 17.42 -12.52 -10.42 32.56zm781.03 -515.02l-735.83 528.91 -34.78 -46.45 735.83 -528.91 17.39 -5.58 17.39 52.03zm-17.39 -52.03l89.77 0 -72.38 52.03 -17.39 -52.03zm-910.14 0l910.14 0 0 57.61 -910.14 0 -27.68 -19.11 27.68 -38.49zm0 57.61l-20.71 0 -6.97 -19.11 27.68 19.11zm-282.13 -888.49l309.81 849.99 -55.36 19.38 -309.81 -849.99 0.28 -20.11 55.08 0.73zm-55.08 -0.73l28.54 -72.07 26.54 72.8 -55.08 -0.73zm-329.2 831.11l329.2 -831.11 54.8 20.84 -329.2 831.11 -27.4 18.38 -27.4 -39.23zm54.8 20.84l-7.28 18.38 -20.12 0 27.4 -18.38zm-918.16 -39.23l890.76 0 0 57.61 -890.76 0 -17.69 -5.8 17.69 -51.81zm-17.69 51.81l-70.19 -51.81 87.88 0 -17.69 51.81zm716.49 528.89l-716.49 -528.89 35.38 -46.01 716.49 528.89 10.18 32.16 -45.56 13.86zm35.38 -46.01l16.91 12.48 -6.73 19.67 -10.18 -32.16zm-355.4 920.51l309.84 -906.65 55.74 18.3 -309.84 906.65 -9.76 13.55 -45.98 -31.85zm45.98 31.85l-77.05 59.05 31.07 -90.9 45.98 31.85zm813.31 -623.31l-813.31 623.31 -36.22 -45.39 813.31 -623.31 35.69 -0.39 0.53 45.78zm-36.22 -45.39l17.69 -13.56 18 13.17 -35.69 0.39z"/>
    </g>
    <g>
     <polygon class="fil2" points="10862.75,7214.01 10029.3,7214.01 10029.3,5444.61 10862.75,4703.38 "/>
     <path id="_1_14" class="fil1" d="M10029.3 7185.21l833.46 0 0 57.61 -833.46 0 -29.39 -28.8 29.39 -28.8zm0 57.61l-29.39 0 0 -28.8 29.39 28.8zm29.39 -1798.21l0 1769.41 -58.79 0 0 -1769.41 9.64 -21.33 49.15 21.33zm-58.79 0l0 -12.76 9.64 -8.57 -9.64 21.33zm882.6 -719.89l-833.46 741.23 -39.51 -42.67 833.46 -741.23 49.15 21.33 -9.64 21.33zm-39.51 -42.67l49.15 -43.71 0 65.05 -49.15 -21.33zm-9.64 2531.97l0 -2510.64 58.79 0 0 2510.64 -29.39 28.8 -29.39 -28.8zm58.79 0l0 28.8 -29.39 0 29.39 -28.8z"/>
    </g>
    <g>
     <path class="fil2" d="M9906.74 6377.14c24.48,717.32 -441.25,836.88 -686.36,836.88l-1936.53 0 441.23 -693.42 1127.59 0c147.09,0 171.61,-239.12 0,-239.12l-1029.53 0c-171.57,0 -245.1,-95.61 -245.1,-239.09l0 -621.69 759.88 -693.41 0 502.13 367.7 -526.04 1421.75 0 -490.25 741.23 -1078.57 0c-196.13,0 -171.61,215.18 0,215.18l661.85 0c514.78,0 612.83,430.43 686.36,717.35z"/>
     <path id="_1_15" class="fil1" d="M9220.38 7242.82l0 -57.61 0 0 22.67 -0.35 23.82 -1.12 24.83 -1.94 25.69 -2.88 26.44 -3.88 27.02 -4.98 27.49 -6.15 27.82 -7.41 28.02 -8.74 28.11 -10.14 28.06 -11.65 27.88 -13.21 27.58 -14.86 27.17 -16.58 26.65 -18.41 26 -20.3 25.25 -22.31 24.38 -24.38 23.39 -26.56 22.32 -28.85 21.08 -31.23 19.76 -33.74 18.31 -36.32 16.72 -39.05 15.02 -41.86 13.17 -44.77 11.17 -47.79 9.04 -50.92 6.79 -54.14 4.38 -57.44 1.82 -60.83 -0.87 -64.33 58.77 -1.92 0.89 66.7 -1.9 63.35 -4.58 60.1 -7.13 56.93 -9.56 53.84 -11.89 50.83 -14.07 47.9 -16.16 45.04 -18.1 42.25 -19.91 39.53 -21.61 36.88 -23.17 34.29 -24.56 31.78 -25.83 29.32 -26.96 26.96 -27.93 24.67 -28.74 22.45 -29.41 20.33 -29.95 18.3 -30.35 16.34 -30.59 14.49 -30.69 12.73 -30.66 11.06 -30.49 9.52 -30.2 8.03 -29.75 6.67 -29.2 5.38 -28.52 4.2 -27.71 3.1 -26.77 2.1 -25.7 1.2 -24.55 0.37 0 0zm-1936.53 -57.61l1936.53 0 0 57.61 -1936.53 0 -24.94 -44.05 24.94 -13.56zm0 57.61l-52.97 0 28.03 -44.05 24.94 44.05zm466.17 -706.98l-441.23 693.42 -49.88 -30.5 441.23 -693.42 24.94 -13.56 24.94 44.05zm-49.88 -30.5l8.63 -13.56 16.31 0 -24.94 13.56zm1152.52 44.05l-1127.59 0 0 -57.61 1127.59 0 0 0 0 57.61zm0 -239.12l0 -57.61 0 0 18.2 0.81 17.25 2.38 16.27 3.96 15.2 5.46 14.05 6.88 12.8 8.19 11.5 9.37 10.14 10.38 8.76 11.24 7.39 11.94 6.04 12.49 4.72 12.93 3.44 13.23 2.21 13.43 1.03 13.55 -0.13 13.56 -1.25 13.51 -2.36 13.4 -3.45 13.18 -4.55 12.89 -5.64 12.53 -6.72 12.05 -7.82 11.5 -8.93 10.83 -10.02 10.03 -11.11 9.13 -12.21 8.08 -13.22 6.86 -14.19 5.54 -15.08 4.06 -15.84 2.48 -16.49 0.84 0 -57.61 10.36 -0.54 9.55 -1.5 8.83 -2.38 8.2 -3.19 7.63 -3.97 7.07 -4.68 6.55 -5.39 6.04 -6.05 5.47 -6.65 4.9 -7.22 4.29 -7.69 3.63 -8.11 2.98 -8.45 2.27 -8.69 1.56 -8.81 0.81 -8.88 0.09 -8.83 -0.65 -8.66 -1.39 -8.44 -2.1 -8.12 -2.81 -7.71 -3.49 -7.25 -4.18 -6.78 -4.86 -6.24 -5.56 -5.7 -6.3 -5.15 -7.14 -4.57 -8.06 -3.95 -9.11 -3.27 -10.24 -2.48 -11.5 -1.6 -12.83 -0.57 0 0zm-1029.53 -57.61l1029.53 0 0 57.61 -1029.53 0 0 0 0 -57.61zm-274.5 -210.28l58.79 0 0 0 0.21 12.37 0.6 12.05 1 11.69 1.4 11.34 1.79 10.95 2.19 10.6 2.58 10.21 2.97 9.82 3.35 9.42 3.74 9.05 4.11 8.66 4.5 8.26 4.89 7.87 5.26 7.5 5.66 7.13 6.06 6.76 6.47 6.39 6.9 6.05 7.34 5.68 7.82 5.35 8.3 4.98 8.82 4.63 9.34 4.24 9.89 3.87 10.46 3.47 11.04 3.06 11.63 2.64 12.23 2.2 12.84 1.73 13.48 1.26 14.1 0.76 14.73 0.27 0 57.61 -16.87 -0.29 -16.36 -0.9 -15.86 -1.48 -15.35 -2.07 -14.86 -2.66 -14.36 -3.26 -13.85 -3.84 -13.35 -4.44 -12.83 -5.02 -12.32 -5.61 -11.78 -6.19 -11.24 -6.74 -10.7 -7.31 -10.12 -7.84 -9.56 -8.37 -8.97 -8.87 -8.38 -9.36 -7.78 -9.79 -7.2 -10.24 -6.59 -10.65 -6.02 -11.04 -5.42 -11.38 -4.87 -11.73 -4.29 -12.08 -3.73 -12.38 -3.2 -12.65 -2.69 -12.97 -2.17 -13.24 -1.66 -13.49 -1.18 -13.76 -0.7 -14 -0.23 -14.24 0 0zm58.79 -621.69l0 621.69 -58.79 0 0 -621.69 9.36 -21.08 49.43 21.08zm-58.79 0l0 -12.54 9.36 -8.54 -9.36 21.08zm809.31 -672.33l-759.88 693.41 -40.07 -42.17 759.88 -693.41 49.43 21.08 -9.36 21.08zm-40.07 -42.17l49.43 -45.1 0 66.19 -49.43 -21.08zm-9.36 523.22l0 -502.13 58.79 0 0 502.13 -5.15 16.28 -53.64 -16.28zm53.64 16.28l-53.64 76.74 0 -93.02 53.64 16.28zm367.7 -526.04l-367.7 526.04 -48.5 -32.56 367.7 -526.04 24.25 -12.52 24.25 45.08zm-48.5 -32.56l8.75 -12.52 15.5 0 -24.25 12.52zm1445.99 45.08l-1421.75 0 0 -57.61 1421.75 0 24.67 44.47 -24.67 13.14zm0 -57.61l54.08 0 -29.41 44.47 -24.67 -44.47zm-514.92 754.36l490.25 -741.23 49.34 31.34 -490.25 741.23 -24.67 13.14 -24.67 -44.47zm49.34 31.34l-8.69 13.14 -15.98 0 24.67 -13.14zm-1103.24 -44.47l1078.57 0 0 57.61 -1078.57 0 0 0 0 -57.61zm0 215.18l0 57.61 0 0 -18.03 -0.71 -17.25 -2.09 -16.43 -3.43 -15.52 -4.7 -14.58 -5.88 -13.6 -7 -12.55 -8.03 -11.44 -8.96 -10.31 -9.8 -9.13 -10.55 -7.94 -11.19 -6.69 -11.75 -5.43 -12.2 -4.12 -12.6 -2.79 -12.85 -1.44 -13.05 -0.04 -13.1 1.38 -13.08 2.85 -12.96 4.33 -12.64 5.81 -12.23 7.31 -11.69 8.77 -11 10.2 -10.17 11.57 -9.23 12.87 -8.19 14.14 -7.07 15.32 -5.87 16.49 -4.65 17.65 -3.37 18.75 -2.04 19.85 -0.69 0 57.61 -15.63 0.55 -14.19 1.54 -12.74 2.43 -11.4 3.22 -10.09 3.86 -8.81 4.41 -7.67 4.87 -6.57 5.25 -5.58 5.57 -4.65 5.84 -3.8 6.09 -3 6.35 -2.24 6.54 -1.47 6.73 -0.72 6.91 0.02 7.05 0.78 7.12 1.55 7.13 2.32 7.08 3.1 6.98 3.88 6.83 4.66 6.59 5.45 6.29 6.25 5.94 7.04 5.52 7.85 5.03 8.69 4.48 9.57 3.85 10.47 3.17 11.34 2.37 12.3 1.49 13.29 0.53 0 0zm661.85 57.61l-661.85 0 0 -57.61 661.85 0 0 0 0 57.61zm715.75 687.59l-58.77 1.92 0.87 6.06 -6.98 -27.31 -7.17 -27.97 -7.45 -28.5 -7.78 -28.96 -8.18 -29.3 -8.66 -29.54 -9.2 -29.67 -9.82 -29.71 -10.49 -29.63 -11.24 -29.46 -12.05 -29.16 -12.92 -28.79 -13.86 -28.3 -14.86 -27.69 -15.92 -27 -17.04 -26.2 -18.21 -25.32 -19.46 -24.34 -20.75 -23.26 -22.15 -22.1 -23.58 -20.86 -25.11 -19.53 -26.7 -18.13 -28.4 -16.64 -30.18 -15.06 -32.09 -13.41 -34.06 -11.65 -36.15 -9.78 -38.33 -7.81 -40.61 -5.72 -42.99 -3.52 -45.45 -1.2 0 -57.61 48.66 1.28 46.37 3.8 44.15 6.22 41.98 8.55 39.86 10.78 37.78 12.91 35.73 14.93 33.75 16.84 31.81 18.64 29.9 20.29 28.07 21.84 26.28 23.25 24.57 24.52 22.92 25.68 21.36 26.7 19.87 27.6 18.46 28.4 17.14 29.08 15.9 29.63 14.76 30.1 13.67 30.44 12.67 30.69 11.76 30.83 10.93 30.86 10.16 30.78 9.5 30.6 8.88 30.33 8.36 29.92 7.9 29.42 7.53 28.82 7.21 28.11 6.98 27.29 0.87 6.06zm-0.87 -6.06l0.77 2.99 0.1 3.06 -0.87 -6.06z"/>
    </g>
    <g>
     <path class="fil2" d="M6082.26 5969.64l218.49 -311.06 1251.92 0 -366.12 599.06 -1104.29 0 0 264.98 1470.41 0 -466.54 691.22 -1836.5 0 0 -599.06 -318.9 599.06c-218.47,23.06 -1346.4,-455.05 -1446.78,-789.15l0 789.15 -832.63 0 0 -1221.14c-47.25,167.03 -318.89,529.92 -761.78,529.92l-1051.12 0 0 691.22 -809.04 0 0 -1814.44 785.4 -673.95 0 529.93 318.89 -529.93 708.62 -23.07c537.37,0 832.62,455.09 832.62,697.02l809.04 -673.95 0 529.93 318.89 -529.93 708.62 0c614.15,0 785.39,599.06 738.16,720.02l808.99 -720.02 0 529.93 342.53 -529.93 1346.37 0 -413.36 696.97 -1251.9 0 0 547.22zm-832.62 478.1c100.38,241.92 -980.29,-115.2 -761.8,-167.04l171.27 0c200.76,0 590.53,-120.97 590.53,-645.15l0 812.19zm-797.22 -167.04c0,0 0,0 0,0l0 0zm-2633.75 -599.06l-637.75 0 -342.49 478.09 0 -714.26 1051.12 0c147.63,0 123.99,236.16 -70.88,236.16zm2692.81 -46.08l-661.39 0 -342.49 501.13 0 -714.27 1033.38 0c171.29,0 194.89,213.14 -29.5,213.14zm-70.87 645.15c0,0 0,0 0,0l0 0z"/>
     <path id="_1_16" class="fil1" d="M6324.98 5674.92l-218.49 311.06 -48.44 -32.68 218.49 -311.06 24.22 -12.46 24.22 45.14zm-48.44 -32.68l8.76 -12.46 15.46 0 -24.22 12.46zm1276.14 45.14l-1251.92 0 0 -57.61 1251.92 0 25.22 43.61 -25.22 14zm0 -57.61l51.87 0 -26.65 43.61 -25.22 -43.61zm-391.34 613.06l366.12 -599.06 50.44 29.61 -366.12 599.06 -25.22 14 -25.22 -43.61zm50.44 29.61l-8.55 14 -16.67 0 25.22 -14zm-1129.51 -43.61l1104.29 0 0 57.61 -1104.29 0 -29.39 -28.8 29.39 -28.8zm-29.39 28.8l0 -28.8 29.39 0 -29.39 28.8zm0 264.98l0 -264.98 58.79 0 0 264.98 -29.39 28.8 -29.39 -28.8zm29.39 28.8l-29.39 0 0 -28.8 29.39 28.8zm1470.41 0l-1470.41 0 0 -57.61 1470.41 0 24.52 44.69 -24.52 12.91zm0 -57.61l54.68 0 -30.16 44.69 -24.52 -44.69zm-491.06 704.14l466.54 -691.22 49.04 31.78 -466.54 691.22 -24.52 12.91 -24.52 -44.69zm49.04 31.78l-8.72 12.91 -15.8 0 24.52 -12.91zm-1861.02 -44.69l1836.5 0 0 57.61 -1836.5 0 -29.39 -28.8 29.39 -28.8zm0 57.61l-29.39 0 0 -28.8 29.39 28.8zm29.39 -627.87l0 599.06 -58.79 0 0 -599.06 3.33 -13.33 55.45 13.33zm-55.45 -13.33l55.45 -104.17 0 117.5 -55.45 -13.33zm-318.9 599.06l318.9 -599.06 52.12 26.65 -318.9 599.06 -22.92 15.32 -29.2 -41.97zm52.12 26.65l-7.28 13.67 -15.64 1.65 22.92 -15.32zm-1443.44 -802.48l-58.79 0 57.6 -8.14 10.82 27.74 16.36 29.41 21.76 30.79 26.86 31.84 31.63 32.61 36.03 33.15 40.06 33.49 43.72 33.65 46.98 33.67 49.91 33.54 52.44 33.28 54.61 32.87 56.43 32.34 57.87 31.67 58.95 30.9 59.67 29.98 60.04 28.95 60.03 27.8 59.67 26.52 58.95 25.14 57.87 23.61 56.42 21.98 54.59 20.22 52.42 18.34 49.86 16.34 46.92 14.22 43.59 11.97 39.85 9.6 35.63 7.13 30.89 4.56 25.49 1.92 19.13 -0.56 6.29 57.29 -27.04 0.86 -30.64 -2.28 -34.47 -5.06 -38.25 -7.65 -41.87 -10.1 -45.23 -12.41 -48.31 -14.64 -51.06 -16.74 -53.48 -18.7 -55.57 -20.58 -57.32 -22.34 -58.73 -23.97 -59.79 -25.48 -60.51 -26.9 -60.87 -28.18 -60.88 -29.37 -60.55 -30.43 -59.87 -31.38 -58.85 -32.21 -57.47 -32.94 -55.75 -33.55 -53.68 -34.06 -51.27 -34.46 -48.53 -34.77 -45.44 -34.99 -42.02 -35.13 -38.25 -35.19 -34.17 -35.23 -29.72 -35.26 -24.94 -35.33 -19.68 -35.48 -13.91 -35.71 57.6 -8.14zm-58.79 0l0 -199.85 57.6 191.71 -57.6 8.14zm0 789.15l0 -789.15 58.79 0 0 789.15 -29.39 28.8 -29.39 -28.8zm58.79 0l0 28.8 -29.39 0 29.39 -28.8zm-862.03 -28.8l832.63 0 0 57.61 -832.63 0 -29.39 -28.8 29.39 -28.8zm0 57.61l-29.39 0 0 -28.8 29.39 28.8zm29.39 -1249.95l0 1221.14 -58.79 0 0 -1221.14 1.07 -7.7 57.72 7.7zm-57.72 -7.7l57.72 -204.02 0 211.72 -57.72 -7.7zm-733.46 566.43l0 -57.61 0 0 39.5 -1.01 38.48 -2.95 37.48 -4.81 36.47 -6.55 35.47 -8.2 34.48 -9.75 33.47 -11.2 32.44 -12.57 31.44 -13.85 30.41 -15.02 29.35 -16.08 28.31 -17.07 27.26 -17.95 26.17 -18.72 25.09 -19.41 24 -19.99 22.89 -20.48 21.77 -20.85 20.61 -21.13 19.46 -21.3 18.3 -21.38 17.13 -21.35 15.93 -21.2 14.73 -20.95 13.5 -20.6 12.27 -20.14 11.02 -19.55 9.77 -18.85 8.5 -18.04 7.22 -17.08 5.92 -15.99 4.63 -14.75 56.65 15.4 -5.55 17.69 -6.86 18.53 -8.16 19.32 -9.44 20.06 -10.73 20.71 -12 21.27 -13.26 21.77 -14.54 22.17 -15.79 22.48 -17.03 22.67 -18.27 22.78 -19.5 22.81 -20.74 22.71 -21.98 22.52 -23.19 22.22 -24.39 21.83 -25.6 21.33 -26.81 20.73 -27.99 20.02 -29.18 19.21 -30.36 18.31 -31.54 17.28 -32.71 16.14 -33.84 14.91 -35 13.56 -36.11 12.1 -37.24 10.53 -38.33 8.86 -39.42 7.07 -40.49 5.19 -41.53 3.19 -42.54 1.07 0 0zm-1051.12 -57.61l1051.12 0 0 57.61 -1051.12 0 -29.39 -28.8 29.39 -28.8zm-29.39 28.8l0 -28.8 29.39 0 -29.39 28.8zm0 691.22l0 -691.22 58.79 0 0 691.22 -29.39 28.8 -29.39 -28.8zm58.79 0l0 28.8 -29.39 0 29.39 -28.8zm-838.43 -28.8l809.04 0 0 57.61 -809.04 0 -29.39 -28.8 29.39 -28.8zm0 57.61l-29.39 0 0 -28.8 29.39 28.8zm29.39 -1843.24l0 1814.44 -58.79 0 0 -1814.44 10.03 -21.68 48.76 21.68zm-58.79 0l0 -13.07 10.03 -8.61 -10.03 21.68zm834.16 -652.28l-785.4 673.95 -38.72 -43.35 785.4 -673.95 48.76 21.68 -10.03 21.68zm-38.72 -43.35l48.76 -41.84 0 63.51 -48.76 -21.68zm-10.03 551.61l0 -529.93 58.79 0 0 529.93 -4.07 14.64 -54.71 -14.64zm54.71 14.64l-54.71 90.93 0 -105.56 54.71 14.64zm318.89 -529.93l-318.89 529.93 -50.64 -29.27 318.89 -529.93 24.35 -14.16 26.29 43.43zm-50.64 -29.27l8.2 -13.64 16.15 -0.52 -24.35 14.16zm734.91 20.36l-708.62 23.07 -1.94 -57.59 708.62 -23.07 0.97 -0.01 0.97 57.6zm-1.94 -57.59l0.31 -0.01 0.66 0 -0.97 0.01zm814.55 703.87l38.08 43.89 -48.44 -21.95 -0.79 -21.25 -2.39 -22.58 -4.01 -23.77 -5.66 -24.79 -7.29 -25.67 -8.93 -26.4 -10.56 -26.99 -12.19 -27.46 -13.81 -27.77 -15.41 -27.96 -17.02 -28.02 -18.59 -27.96 -20.16 -27.76 -21.73 -27.45 -23.26 -27 -24.81 -26.43 -26.32 -25.75 -27.82 -24.94 -29.31 -24.01 -30.81 -22.96 -32.27 -21.8 -33.74 -20.51 -35.18 -19.11 -36.62 -17.59 -38.06 -15.97 -39.49 -14.22 -40.93 -12.35 -42.36 -10.38 -43.78 -8.28 -45.21 -6.07 -46.63 -3.73 -48.09 -1.27 0 -57.61 51.25 1.35 49.84 3.97 48.4 6.51 46.92 8.86 45.44 11.14 43.93 13.26 42.41 15.28 40.87 17.13 39.31 18.89 37.74 20.49 36.16 22 34.57 23.34 32.97 24.58 31.36 25.67 29.74 26.66 28.12 27.51 26.49 28.23 24.86 28.84 23.21 29.33 21.56 29.68 19.91 29.94 18.24 30.06 16.59 30.06 14.89 29.97 13.22 29.74 11.52 29.43 9.79 28.98 8.09 28.43 6.34 27.81 4.58 27.07 2.77 26.24 0.93 25.32 -48.44 -21.95zm38.08 43.89l-48.44 40.35 0 -62.29 48.44 21.95zm809.04 -673.95l-809.04 673.95 -38.08 -43.89 809.04 -673.95 48.44 21.95 -10.35 21.95zm-38.08 -43.89l48.44 -40.35 0 62.29 -48.44 -21.95zm-10.35 551.88l0 -529.93 58.79 0 0 529.93 -4.07 14.64 -54.71 -14.64zm54.71 14.64l-54.71 90.93 0 -105.56 54.71 14.64zm318.89 -529.93l-318.89 529.93 -50.64 -29.27 318.89 -529.93 25.32 -14.17 25.32 43.44zm-50.64 -29.27l8.52 -14.17 16.8 0 -25.32 14.17zm733.94 43.44l-708.62 0 0 -57.61 708.62 0 0 0 0 57.61zm718.4 669.9l39.53 42.65 -47.21 -31.62 2.51 -8.55 1.94 -12.2 0.94 -15.29 -0.28 -17.94 -1.62 -20.27 -3.03 -22.29 -4.51 -24.03 -6.04 -25.55 -7.61 -26.84 -9.21 -27.89 -10.86 -28.76 -12.52 -29.39 -14.26 -29.83 -16.01 -30.06 -17.8 -30.09 -19.61 -29.93 -21.45 -29.56 -23.35 -29.01 -25.27 -28.26 -27.21 -27.33 -29.21 -26.2 -31.24 -24.89 -33.31 -23.41 -35.41 -21.74 -37.58 -19.87 -39.81 -17.84 -42.08 -15.64 -44.42 -13.23 -46.82 -10.63 -49.3 -7.85 -51.84 -4.86 -54.44 -1.67 0 -57.61 58.13 1.77 55.62 5.22 53.14 8.45 50.67 11.51 48.21 14.35 45.78 17 43.35 19.44 40.95 21.66 38.59 23.68 36.25 25.47 33.96 27.05 31.7 28.44 29.47 29.59 27.31 30.55 25.19 31.3 23.12 31.85 21.09 32.18 19.12 32.34 17.19 32.29 15.32 32.06 13.49 31.62 11.7 30.99 9.97 30.19 8.27 29.2 6.62 28.03 5.03 26.71 3.43 25.23 1.88 23.62 0.34 21.91 -1.26 20.15 -2.96 18.43 -5.06 16.86 -47.21 -31.62zm39.53 42.65l-91.28 81.23 44.06 -112.85 47.21 31.62zm808.99 -720.02l-808.99 720.02 -39.53 -42.65 808.99 -720.02 49.16 21.32 -9.63 21.32zm-39.53 -42.65l49.16 -43.75 0 65.08 -49.16 -21.32zm-9.63 551.26l0 -529.93 58.79 0 0 529.93 -4.57 15.42 -54.22 -15.42zm54.22 15.42l-54.22 83.89 0 -99.31 54.22 15.42zm342.53 -529.93l-342.53 529.93 -49.66 -30.84 342.53 -529.93 24.83 -13.39 24.83 44.22zm-49.66 -30.84l8.65 -13.39 16.18 0 -24.83 13.39zm1371.2 44.22l-1346.37 0 0 -57.61 1346.37 0 25.42 43.28 -25.42 14.33zm0 -57.61l51.09 0 -25.67 43.28 -25.42 -43.28zm-438.78 711.29l413.36 -696.97 50.84 28.95 -413.36 696.97 -25.42 14.33 -25.42 -43.28zm50.84 28.95l-8.5 14.33 -16.92 0 25.42 -14.33zm-1277.32 -43.28l1251.9 0 0 57.61 -1251.9 0 -29.39 -28.8 29.39 -28.8zm-29.39 28.8l0 -28.8 29.39 0 -29.39 28.8zm0 547.22l0 -547.22 58.79 0 0 547.22 -5.18 16.34 -53.61 -16.34zm53.61 16.34l-53.61 76.33 0 -92.67 53.61 16.34zm-1618.64 265.92l0 57.61 6.92 -0.8 -10.39 3.42 0.56 -0.96 3.06 -9.28 -0.55 -3.56 4.57 5.32 11.37 9.5 17.26 11.55 22.3 12.73 26.63 13.49 30.4 13.94 33.62 14.19 36.31 14.21 38.55 14.05 40.29 13.72 41.56 13.2 42.35 12.52 42.68 11.65 42.52 10.64 41.89 9.45 40.79 8.09 39.17 6.57 37.06 4.9 34.4 3.05 31.16 1.11 27.28 -0.92 22.61 -2.92 17.04 -4.56 10.68 -5.24 4.79 -4.34 1.77 -3.85 0.1 -7.62 -4.15 -14.15 54.46 -21.71 7.9 27.76 -0.78 27.6 -11.14 25 -19.22 18.49 -23.54 11.9 -26.49 7.22 -29.31 3.82 -32.13 1.1 -34.8 -1.21 -37.24 -3.31 -39.35 -5.2 -41.07 -6.89 -42.41 -8.41 -43.33 -9.77 -43.82 -10.96 -43.88 -11.99 -43.51 -12.86 -42.72 -13.56 -41.47 -14.12 -39.8 -14.51 -37.69 -14.75 -35.16 -14.83 -32.26 -14.8 -28.95 -14.67 -25.34 -14.5 -21.5 -14.42 -17.62 -14.87 -13.76 -17.13 -7.26 -23.77 8.83 -26.9 19.76 -15.66 23.11 -8.03 6.92 -0.8zm-6.92 0.8l3.37 -0.8 3.54 0 -6.92 0.8zm178.19 56.81l-171.27 0 0 -57.61 171.27 0 0 0 0 57.61zm619.93 -673.95l-58.79 0 58.79 0 -1.15 49.3 -3.4 47.07 -5.56 44.85 -7.61 42.7 -9.56 40.58 -11.42 38.5 -13.17 36.45 -14.82 34.45 -16.37 32.48 -17.78 30.54 -19.1 28.63 -20.3 26.78 -21.37 24.95 -22.34 23.18 -23.19 21.44 -23.9 19.74 -24.5 18.13 -24.99 16.54 -25.35 15.02 -25.61 13.56 -25.76 12.14 -25.8 10.79 -25.71 9.49 -25.55 8.27 -25.25 7.08 -24.87 5.97 -24.39 4.9 -23.79 3.89 -23.1 2.93 -22.32 2.03 -21.43 1.18 -20.48 0.38 0 -57.61 18.24 -0.34 19.27 -1.06 20.19 -1.85 20.99 -2.65 21.67 -3.55 22.23 -4.46 22.69 -5.45 23.03 -6.46 23.27 -7.53 23.39 -8.63 23.42 -9.79 23.34 -11 23.15 -12.25 22.87 -13.54 22.49 -14.88 22 -16.27 21.43 -17.72 20.76 -19.2 19.99 -20.73 19.15 -22.35 18.2 -24.02 17.16 -25.73 16.04 -27.53 14.81 -29.37 13.46 -31.31 12.04 -33.31 10.48 -35.36 8.84 -37.49 7.07 -39.68 5.2 -41.95 3.2 -44.25 1.09 -46.63 58.79 0zm-58.79 812.19l0 -812.19 58.79 0 0 812.19 -56.63 10.85 -2.16 -10.85zm2.16 10.85l-2.16 -5.22 0 -5.64 2.16 10.85zm-769.99 -177.9l0 0 0 0 0 0 0 0 0 0 0 0 0 0 0 0 0 0 0 0 0 0 0 0 0 0 0 0 0 0 0 0 0 0 0 0 0 0 0 0 0 0zm-3271.5 -627.87l637.75 0 0 57.61 -637.75 0 -24.06 -45.35 24.06 -12.25zm-24.06 12.25l8.78 -12.25 15.28 0 -24.06 12.25zm-342.49 478.09l342.49 -478.09 48.12 33.1 -342.49 478.09 -53.45 -16.55 5.34 -16.55zm48.12 33.1l-53.45 74.62 0 -91.17 53.45 16.55zm5.34 -730.81l0 714.26 -58.79 0 0 -714.26 29.39 -28.8 29.39 28.8zm-58.79 0l0 -28.8 29.39 0 -29.39 28.8zm1080.51 28.8l-1051.12 0 0 -57.61 1051.12 0 0 0 0 57.61zm-70.88 236.16l0 -57.61 0 0 15.48 -0.6 14.36 -1.69 13.32 -2.68 12.29 -3.59 11.33 -4.42 10.41 -5.14 9.5 -5.8 8.64 -6.4 7.81 -6.92 6.98 -7.39 6.18 -7.8 5.37 -8.12 4.56 -8.38 3.75 -8.58 2.93 -8.65 2.13 -8.68 1.33 -8.6 0.54 -8.41 -0.21 -8.16 -0.97 -7.81 -1.65 -7.38 -2.32 -6.87 -2.95 -6.33 -3.53 -5.77 -4.1 -5.18 -4.7 -4.6 -5.35 -4.04 -6.09 -3.49 -6.94 -2.9 -7.92 -2.22 -9.04 -1.44 -10.25 -0.53 0 -57.61 16.42 0.83 15.63 2.5 14.75 4.14 13.73 5.73 12.55 7.2 11.29 8.55 9.94 9.72 8.53 10.72 7.08 11.49 5.68 12.15 4.28 12.65 2.93 13.01 1.63 13.26 0.37 13.45 -0.88 13.52 -2.09 13.51 -3.29 13.45 -4.52 13.28 -5.7 13.03 -6.9 12.68 -8.09 12.26 -9.3 11.72 -10.48 11.09 -11.67 10.34 -12.84 9.5 -14.01 8.52 -15.1 7.46 -16.16 6.28 -17.22 5.04 -18.22 3.68 -19.16 2.25 -20.06 0.76 0 0zm2031.42 -103.69l661.39 0 0 57.61 -661.39 0 -24.43 -44.83 24.43 -12.77zm-24.43 12.77l8.73 -12.77 15.7 0 -24.43 12.77zm-342.49 501.13l342.49 -501.13 48.86 32.06 -342.49 501.13 -53.82 -16.03 4.97 -16.03zm48.86 32.06l-53.82 78.75 0 -94.78 53.82 16.03zm4.97 -730.3l0 714.27 -58.79 0 0 -714.27 29.39 -28.8 29.39 28.8zm-58.79 0l0 -28.8 29.39 0 -29.39 28.8zm1062.77 28.8l-1033.38 0 0 -57.61 1033.38 0 0 0 0 57.61zm-29.5 213.14l0 -57.61 0 0 18.48 -0.56 16.9 -1.59 15.34 -2.52 13.83 -3.35 12.34 -4.05 10.91 -4.66 9.52 -5.14 8.2 -5.52 6.99 -5.83 5.86 -6.07 4.8 -6.21 3.81 -6.34 2.93 -6.48 2.08 -6.55 1.26 -6.62 0.48 -6.7 -0.3 -6.73 -1.07 -6.74 -1.85 -6.69 -2.65 -6.63 -3.45 -6.49 -4.26 -6.3 -5.1 -6.07 -5.93 -5.75 -6.77 -5.37 -7.64 -4.92 -8.54 -4.41 -9.44 -3.8 -10.37 -3.13 -11.3 -2.34 -12.28 -1.49 -13.27 -0.52 0 -57.61 17.97 0.7 17.21 2.07 16.37 3.4 15.46 4.66 14.51 5.85 13.51 6.97 12.44 8 11.33 8.97 10.15 9.85 8.92 10.61 7.65 11.3 6.34 11.91 4.96 12.39 3.55 12.79 2.07 13.07 0.58 13.22 -0.96 13.27 -2.52 13.19 -4.12 12.93 -5.68 12.54 -7.26 12.06 -8.8 11.39 -10.26 10.61 -11.71 9.77 -13.11 8.82 -14.45 7.78 -15.74 6.72 -17.03 5.6 -18.29 4.44 -19.58 3.22 -20.86 1.97 -22.15 0.66 0 0zm-70.87 616.34l0 0 0 0 0 0 0 0 0 0 0 0 0 0 0 0 0 0 0 0 0 0 0 0 0 0 0 0 0 0 0 0 0 0 0 0 0 0 0 0 0 0z"/>
    </g>
    <g>
     <path class="fil3" d="M14727.85 7651.92l-14.81 -68.62 -43.48 -36.09 -75.89 -15.34 -107.34 -2.72 -112.9 3.61 -74.02 16.25 -40.74 37.02 -12.93 65.89 11.08 57.77 40.74 33.41 75.87 14.42 119.37 3.61 141.58 3.61 37.03 18.06 10.17 9.92 2.76 29.78 -8.32 42.44 -29.59 24.37 -58.32 9.92 -95.32 1.8 -151.77 -11.72 -30.54 -23.48 -9.23 -44.21 0 -9.03 -55.52 0 0 17.14 9.23 60.47 36.09 35.21 74.96 16.25 126.78 4.51 111.99 -1.8 76.8 -13.54 44.41 -36.1 13.88 -72.22 -12.02 -59.58 -41.65 -33.37 -75.87 -14.45 -117.54 -2.73 -136.04 -2.69 -40.71 -17.14 -11.11 -9.95 -3.67 -30.68 9.23 -43.33 31.48 -22.56 144.36 -11.76 154.55 15.37 24.98 23.46 6.47 38.82 55.52 0zm-806.32 14.56l-10.17 -78.53 -38.89 -40.63 -76.8 -15.34 -127.69 -1.8 -143.45 4.53 -78.65 26.18 -32.4 62.27 -6.47 115.54 6.47 115.52 12.02 37.01 20.37 25.29 78.65 26.18 143.45 4.5 138.79 -2.69 79.6 -18.06 34.24 -42.44 8.32 -81.22 -53.67 0 -4.65 56.86 -25.89 29.79 -61.99 10.83 -114.75 1.81 -123.07 -2.7 -61.08 -18.98 -19.43 -48.74 -1.85 -92.96 1.85 -92.98 19.43 -48.74 61.08 -18.95 123.07 -2.73 109.2 1.81 61.99 10.83 27.77 27.07 6.47 51.46 48.12 0zm-873.51 -123.8l0 400.77 55.52 0 0 -400.77 -55.52 0zm-851.13 0l0 400.77 55.52 0 0 -360.15 392.37 360.15 90.69 0 0 -400.77 -55.52 0 0 360.18 -392.37 -360.18 -90.69 0zm-873.51 196.64l7.41 119.16 35.15 62.27 84.21 23.48 151.77 3.58 151.76 -3.58 84.22 -23.48 22.22 -25.29 12.97 -36.98 7.41 -119.16 -7.41 -119.16 -12.97 -36.99 -22.22 -25.29 -84.22 -23.48 -151.76 -3.58 -151.77 3.58 -84.21 23.48 -22.2 25.29 -12.96 36.99 -7.41 119.16 55.52 0 3.7 -90.26 17.57 -48.74 43.51 -20.76 80.5 -3.61 154.52 0 80.51 3.61 44.41 20.76 17.61 48.74 3.7 90.26 -3.7 90.25 -17.61 48.74 -44.41 20.76 -80.51 3.61 -154.52 0 -80.5 -3.61 -43.51 -20.76 -17.57 -48.74 -3.7 -90.25 -55.52 0zm-806.32 -196.64l0 400.77 55.52 0 0 -156.14 264.66 0 57.38 2.69 33.3 11.72 14.82 28.9 3.7 52.35 0 60.47 56.44 0 0 -93.87 -6.47 -39.72 -15.73 -23.48 -49.06 -21.65 48.12 -16.26 20.37 -28.87 8.32 -55.96 -11.11 -67.72 -33.3 -36.1 -53.67 -14.45 -73.1 -2.7 -320.18 0 55.52 41.52 264.66 0 90.68 12.64 19.43 24.37 5.56 42.44 -5.56 42.41 -19.43 23.48 -90.68 12.64 -264.66 0 0 -157.98 -55.52 -41.52zm-589.81 43.7l0 355.64 56.44 0 0 -355.64 217.48 0 0 -45.13 -491.37 0 0 45.13 217.45 0zm-515.16 80.1l-10.16 -78.53 -38.9 -40.63 -76.8 -15.34 -127.69 -1.8 -143.45 4.53 -78.65 26.18 -32.4 62.27 -6.47 115.54 6.47 115.52 12.02 37.01 20.37 25.29 78.65 26.18 143.45 4.5 138.79 -2.69 79.6 -18.06 34.24 -42.44 8.32 -81.22 -53.67 0 -4.65 56.86 -25.89 29.79 -61.99 10.83 -114.75 1.81 -123.07 -2.7 -61.08 -18.98 -19.43 -48.74 -1.85 -92.96 1.85 -92.98 19.43 -48.74 61.08 -18.95 123.07 -2.73 109.2 1.81 61.99 10.83 27.77 27.07 6.47 51.46 48.12 0zm-1254.28 -123.8l0 400.77 426.59 0 0 -45.13 -371.07 0 0 -143.53 354.43 0 0 -45.13 -354.43 0 0 -121.85 371.07 0 0 -45.13 -426.59 0zm-701.79 0l0 400.77 393.29 0 0 -45.13 -337.76 0 0 -355.64 -55.52 0zm-746.6 0l0 400.77 426.59 0 0 -45.13 -371.06 0 0 -143.53 354.42 0 0 -45.13 -354.42 0 0 -121.85 371.06 0 0 -45.13 -426.59 0z"/>
     <path id="_1_17" class="fil4 str0" d="M14727.85 7651.92l-14.81 -68.62 -43.48 -36.09 -75.89 -15.34 -107.34 -2.72 -112.9 3.61 -74.02 16.25 -40.74 37.02 -12.93 65.89 11.08 57.77 40.74 33.41 75.87 14.42 119.37 3.61 141.58 3.61 37.03 18.06 10.17 9.92 2.76 29.78 -8.32 42.44 -29.59 24.37 -58.32 9.92 -95.32 1.8 -151.77 -11.72 -30.54 -23.48 -9.23 -44.21 0 -9.03 -55.52 0 0 17.14 9.23 60.47 36.09 35.21 74.96 16.25 126.78 4.51 111.99 -1.8 76.8 -13.54 44.41 -36.1 13.88 -72.22 -12.02 -59.58 -41.65 -33.37 -75.87 -14.45 -117.54 -2.73 -136.04 -2.69 -40.71 -17.14 -11.11 -9.95 -3.67 -30.68 9.23 -43.33 31.48 -22.56 144.36 -11.76 154.55 15.37 24.98 23.46 6.47 38.82 55.52 0zm-806.32 14.56l-10.17 -78.53 -38.89 -40.63 -76.8 -15.34 -127.69 -1.8 -143.45 4.53 -78.65 26.18 -32.4 62.27 -6.47 115.54 6.47 115.52 12.02 37.01 20.37 25.29 78.65 26.18 143.45 4.5 138.79 -2.69 79.6 -18.06 34.24 -42.44 8.32 -81.22 -53.67 0 -4.65 56.86 -25.89 29.79 -61.99 10.83 -114.75 1.81 -123.07 -2.7 -61.08 -18.98 -19.43 -48.74 -1.85 -92.96 1.85 -92.98 19.43 -48.74 61.08 -18.95 123.07 -2.73 109.2 1.81 61.99 10.83 27.77 27.07 6.47 51.46 48.12 0zm-873.51 -123.8l0 400.77 55.52 0 0 -400.77 -55.52 0zm-851.13 0l0 400.77 55.52 0 0 -360.15 392.37 360.15 90.69 0 0 -400.77 -55.52 0 0 360.18 -392.37 -360.18 -90.69 0zm-873.51 196.64l7.41 119.16 35.15 62.27 84.21 23.48 151.77 3.58 151.76 -3.58 84.22 -23.48 22.22 -25.29 12.97 -36.98 7.41 -119.16 -7.41 -119.16 -12.97 -36.99 -22.22 -25.29 -84.22 -23.48 -151.76 -3.58 -151.77 3.58 -84.21 23.48 -22.2 25.29 -12.96 36.99 -7.41 119.16 55.52 0 3.7 -90.26 17.57 -48.74 43.51 -20.76 80.5 -3.61 154.52 0 80.51 3.61 44.41 20.76 17.61 48.74 3.7 90.26 -3.7 90.25 -17.61 48.74 -44.41 20.76 -80.51 3.61 -154.52 0 -80.5 -3.61 -43.51 -20.76 -17.57 -48.74 -3.7 -90.25 -55.52 0zm-806.32 -196.64l0 400.77 55.52 0 0 -156.14 264.66 0 57.38 2.69 33.3 11.72 14.82 28.9 3.7 52.35 0 60.47 56.44 0 0 -93.87 -6.47 -39.72 -15.73 -23.48 -49.06 -21.65 48.12 -16.26 20.37 -28.87 8.32 -55.96 -11.11 -67.72 -33.3 -36.1 -53.67 -14.45 -73.1 -2.7 -320.18 0 55.52 41.52 264.66 0 90.68 12.64 19.43 24.37 5.56 42.44 -5.56 42.41 -19.43 23.48 -90.68 12.64 -264.66 0 0 -157.98 -55.52 -41.52zm-589.81 43.7l0 355.64 56.44 0 0 -355.64 217.48 0 0 -45.13 -491.37 0 0 45.13 217.45 0zm-515.16 80.1l-10.16 -78.53 -38.9 -40.63 -76.8 -15.34 -127.69 -1.8 -143.45 4.53 -78.65 26.18 -32.4 62.27 -6.47 115.54 6.47 115.52 12.02 37.01 20.37 25.29 78.65 26.18 143.45 4.5 138.79 -2.69 79.6 -18.06 34.24 -42.44 8.32 -81.22 -53.67 0 -4.65 56.86 -25.89 29.79 -61.99 10.83 -114.75 1.81 -123.07 -2.7 -61.08 -18.98 -19.43 -48.74 -1.85 -92.96 1.85 -92.98 19.43 -48.74 61.08 -18.95 123.07 -2.73 109.2 1.81 61.99 10.83 27.77 27.07 6.47 51.46 48.12 0zm-1254.28 -123.8l0 400.77 426.59 0 0 -45.13 -371.07 0 0 -143.53 354.43 0 0 -45.13 -354.43 0 0 -121.85 371.07 0 0 -45.13 -426.59 0zm-701.79 0l0 400.77 393.29 0 0 -45.13 -337.76 0 0 -355.64 -55.52 0zm-746.6 0l0 400.77 426.59 0 0 -45.13 -371.06 0 0 -143.53 354.42 0 0 -45.13 -354.42 0 0 -121.85 371.06 0 0 -45.13 -426.59 0z"/>
    </g>
   </g>
   <g>
    <path class="fil3" d="M8842.43 4382.93l0 -90.4 -289.91 0 0 41.4 214.71 0 0 51.2c0,29.94 -7.13,50.12 -27.69,59.37 -27.73,13.08 -75.17,15.24 -129.77,16.35 -11.6,-1.11 -25.96,-1.11 -38.44,-1.11 -11.67,0 -25.96,0 -41.17,1.11 -43.87,-1.11 -91.32,-3.27 -124.4,-18.54 -25.92,-11.44 -40.28,-33.77 -40.28,-70.81l0 -148.14c0,-47.93 10.76,-70.26 34.92,-81.7 40.28,-19.61 99.33,-15.27 185.24,-16.35 60.81,1.08 129.7,-3.26 161.02,17.43 15.28,9.25 18.8,24.52 18.8,47.4l0 17.43 75.2 0 0 -31.07c0,-60.45 -66.21,-91.51 -174.49,-91.51l-181.65 0c-59.96,0 -111.88,10.88 -143.2,31.06 -34.85,23.41 -52.8,59.38 -52.8,108.39l0 134.02c0,58.82 18.8,91.48 54.63,112.73 42.93,25.6 108.29,28.96 178.06,28.96 18.79,0 36.68,0 53.71,0 101.98,0 164.62,0 215.62,-23.51 36.68,-17.98 51.89,-49.04 51.89,-93.7zm655.09 -254.36c38.48,0 81.44,5.46 101.1,19.06 16.12,11.99 17.95,33.22 17.95,53.39 0,3.26 0,7.62 0,13.6 0,19.62 -3.59,44.66 -25.08,58.85 -24.2,15.8 -59.05,19.06 -102.92,19.06l-237.99 0 0 -163.96 246.94 0zm-1.79 -40.32l-322.1 0 0 408.52 75.13 0 0 -162.85 241.65 0c36.68,0 73.36,3.26 92.16,16.87 19.65,13.08 25.05,36.51 25.05,56.66l0 89.32 76.96 0 0 -109.47c0,-39.23 -43.9,-68.1 -108.29,-72.44l0 -1.11c40.29,-3.24 69.77,-11.41 90.4,-27.76 23.25,-20.17 25.93,-51.75 25.93,-76.28 0,-36.48 -8.05,-71.33 -39.37,-91.48 -34,-22.37 -94.85,-29.98 -157.52,-29.98zm782.18 37.04c31.3,1.08 66.21,0 95.77,2.19 28.6,2.16 50.97,7.62 65.29,17.43 29.55,19.06 29.55,56.1 29.55,69.7l0 156.87c0,40.31 -12.58,56.1 -25.96,67.02 -26.84,22.34 -84.09,21.22 -161.05,21.22 -12.52,0 -27.79,0 -43.91,0 -49.18,-1.08 -101.06,-2.16 -122.54,-24.49 -8.07,-8.73 -22.37,-24.52 -22.37,-67.03l0 -149.21c1.77,-3.27 -3.59,-40.32 17.89,-65.92 24.16,-25.6 76.05,-27.79 139.6,-27.79 10.72,0 18.8,0 27.72,0zm1.77 -40.31c-82.3,0 -181.65,-2.16 -229.1,39.24 -31.32,28.86 -33.09,64.27 -33.09,101.32l0 144.87c0,37.04 9,74.09 43.85,97.49 45.64,28.87 117.24,32.24 178.09,32.24 25.96,0 50.97,0 76.96,0 62.64,0 153.9,-2.19 192.34,-39.3 18.8,-18.54 34.92,-39.79 34.92,-89.35l0 -140.52c3.59,-85.5 -34.92,-107.85 -34.92,-107.85 -43.81,-38.12 -152.1,-38.12 -229.06,-38.12zm873.46 374.74c-5.37,0 -12.55,0 -18.8,1.11 -47.4,-1.11 -108.25,-2.19 -140.48,-15.27 -25.96,-10.33 -31.33,-33.78 -31.33,-60.45l0 -296.87 -75.13 0 0 297.95c0,38.12 17.88,79.55 68,95.86 54.57,18.08 118.95,18.08 182.5,18.08 77.88,0 170.9,1.08 226.38,-25.7 36.68,-19.05 54.62,-50.12 54.62,-93.67l0 -292.52 -76.96 0 0 282.16c0,27.23 0,57.19 -27.75,71.89 -25.96,16.35 -84.13,17.43 -141.37,18.54 -7.16,-1.11 -14.29,-1.11 -19.68,-1.11zm697.11 -121.46l255.02 0c66.25,0 106.52,-11.96 130.68,-31.03 33.09,-23.45 40.28,-59.38 40.28,-93.71 0,-30.5 -5.36,-63.71 -27.75,-87.16 -22.37,-24.49 -68.01,-38.12 -133.32,-38.12l-340.02 0 0 408.52 75.13 0 0 -158.5zm0 -41.39l0 -168.31 238.97 0c58.17,0 84.12,9.81 96.61,23.41 9.84,12 15.2,39.24 15.2,65.92 0,27.79 -3.59,46.84 -27.69,63.75 -17.94,11.96 -49.27,15.24 -108.28,15.24l-214.81 0zm740.14 199.89l431.27 0 0 -40.32 -356.07 0 0 -150.32 340.9 0 0 -38.12 -340.9 0 0 -139.44 356.07 0 0 -40.32 -431.27 0 0 408.52z"/>
    <path id="_1_18" class="fil4 str0" d="M8842.43 4382.93l0 -90.4 -289.91 0 0 41.4 214.71 0 0 51.2c0,29.94 -7.13,50.12 -27.69,59.37 -27.73,13.08 -75.17,15.24 -129.77,16.35 -11.6,-1.11 -25.96,-1.11 -38.44,-1.11 -11.67,0 -25.96,0 -41.17,1.11 -43.87,-1.11 -91.32,-3.27 -124.4,-18.54 -25.92,-11.44 -40.28,-33.77 -40.28,-70.81l0 -148.14c0,-47.93 10.76,-70.26 34.92,-81.7 40.28,-19.61 99.33,-15.27 185.24,-16.35 60.81,1.08 129.7,-3.26 161.02,17.43 15.28,9.25 18.8,24.52 18.8,47.4l0 17.43 75.2 0 0 -31.07c0,-60.45 -66.21,-91.51 -174.49,-91.51l-181.65 0c-59.96,0 -111.88,10.88 -143.2,31.06 -34.85,23.41 -52.8,59.38 -52.8,108.39l0 134.02c0,58.82 18.8,91.48 54.63,112.73 42.93,25.6 108.29,28.96 178.06,28.96 18.79,0 36.68,0 53.71,0 101.98,0 164.62,0 215.62,-23.51 36.68,-17.98 51.89,-49.04 51.89,-93.7zm655.09 -254.36c38.48,0 81.44,5.46 101.1,19.06 16.12,11.99 17.95,33.22 17.95,53.39 0,3.26 0,7.62 0,13.6 0,19.62 -3.59,44.66 -25.08,58.85 -24.2,15.8 -59.05,19.06 -102.92,19.06l-237.99 0 0 -163.96 246.94 0zm-1.79 -40.32l-322.1 0 0 408.52 75.13 0 0 -162.85 241.65 0c36.68,0 73.36,3.26 92.16,16.87 19.65,13.08 25.05,36.51 25.05,56.66l0 89.32 76.96 0 0 -109.47c0,-39.23 -43.9,-68.1 -108.29,-72.44l0 -1.11c40.29,-3.24 69.77,-11.41 90.4,-27.76 23.25,-20.17 25.93,-51.75 25.93,-76.28 0,-36.48 -8.05,-71.33 -39.37,-91.48 -34,-22.37 -94.85,-29.98 -157.52,-29.98zm782.18 37.04c31.3,1.08 66.21,0 95.77,2.19 28.6,2.16 50.97,7.62 65.29,17.43 29.55,19.06 29.55,56.1 29.55,69.7l0 156.87c0,40.31 -12.58,56.1 -25.96,67.02 -26.84,22.34 -84.09,21.22 -161.05,21.22 -12.52,0 -27.79,0 -43.91,0 -49.18,-1.08 -101.06,-2.16 -122.54,-24.49 -8.07,-8.73 -22.37,-24.52 -22.37,-67.03l0 -149.21c1.77,-3.27 -3.59,-40.32 17.89,-65.92 24.16,-25.6 76.05,-27.79 139.6,-27.79 10.72,0 18.8,0 27.72,0zm1.77 -40.31c-82.3,0 -181.65,-2.16 -229.1,39.24 -31.32,28.86 -33.09,64.27 -33.09,101.32l0 144.87c0,37.04 9,74.09 43.85,97.49 45.64,28.87 117.24,32.24 178.09,32.24 25.96,0 50.97,0 76.96,0 62.64,0 153.9,-2.19 192.34,-39.3 18.8,-18.54 34.92,-39.79 34.92,-89.35l0 -140.52c3.59,-85.5 -34.92,-107.85 -34.92,-107.85 -43.81,-38.12 -152.1,-38.12 -229.06,-38.12zm873.46 374.74c-5.37,0 -12.55,0 -18.8,1.11 -47.4,-1.11 -108.25,-2.19 -140.48,-15.27 -25.96,-10.33 -31.33,-33.78 -31.33,-60.45l0 -296.87 -75.13 0 0 297.95c0,38.12 17.88,79.55 68,95.86 54.57,18.08 118.95,18.08 182.5,18.08 77.88,0 170.9,1.08 226.38,-25.7 36.68,-19.05 54.62,-50.12 54.62,-93.67l0 -292.52 -76.96 0 0 282.16c0,27.23 0,57.19 -27.75,71.89 -25.96,16.35 -84.13,17.43 -141.37,18.54 -7.16,-1.11 -14.29,-1.11 -19.68,-1.11zm697.11 -121.46l255.02 0c66.25,0 106.52,-11.96 130.68,-31.03 33.09,-23.45 40.28,-59.38 40.28,-93.71 0,-30.5 -5.36,-63.71 -27.75,-87.16 -22.37,-24.49 -68.01,-38.12 -133.32,-38.12l-340.02 0 0 408.52 75.13 0 0 -158.5zm0 -41.39l0 -168.31 238.97 0c58.17,0 84.12,9.81 96.61,23.41 9.84,12 15.2,39.24 15.2,65.92 0,27.79 -3.59,46.84 -27.69,63.75 -17.94,11.96 -49.27,15.24 -108.28,15.24l-214.81 0zm740.14 199.89l431.27 0 0 -40.32 -356.07 0 0 -150.32 340.9 0 0 -38.12 -340.9 0 0 -139.44 356.07 0 0 -40.32 -431.27 0 0 408.52z"/>
   </g>
  </g>
 </g>
</svg>
