<svg preserveAspectRatio="xMidYMid meet" width="227" height="52" data-bbox="1.28 -0.005 226.016 51.225" viewBox="1.28 -0.005 226.016 51.225" xmlns="http://www.w3.org/2000/svg" data-type="color" role="presentation" aria-hidden="true" aria-label="">
    <g>
        <path d="M27 8.9a5.79 5.79 0 0 1-.52-.77C17.94 5.25 12 6 6.69 10.38l-.08-.13C11.38 4.7 19.5 4.83 25.87 6.61v-.05c-7.11-3.31-12.43-3-17.78.16L8 6.6C13 2.13 20.25 3 25.87 5.3c-5.51-3.64-10-3.8-15-2l-.08-.13C15.81-.09 22 1.73 26.53 4.51l.14-.07C22.77.83 19.29.26 14.87.85l-.1-.18c4.8-1.95 9.79.65 13.1 3.69a6.55 6.55 0 0 1 3.57 2.32c1.55 1.85 1.85 3.88.68 4.54s-3.23-.07-4.79-1.91a29 29 0 0 0-4 4l2.24 5.36 5.59-2.11 1.9-1.31 1 1.79-2.23.33-7 2.63-2.17-5.73c-3.65 5.4-2 8.76.8 12.86l9.38-1-.37 9.33 4.81-2.41.17.57L31 37.76l.4-10.27-8 1L17.66 30l-.61 7.62L12 44l1.83 2.06 2.54-.88.36.47-3 1.54-4.15-2.81 1.1-.94 4.9-6.23.82-7.6c-.74-3.37-2.14-7.83.22-12.29l-5 4.89 1.66 6.08 1.39 2-2.34.68v-2.23l-1.84-6.84 4.17-4c-3.54 1.85-7 2.31-8.44.51s.5-5.58 4.45-8.18S19 7 20.52 8.94c.78 1 .62 2.44-.25 4A29.06 29.06 0 0 1 27 8.9" fill-rule="evenodd" fill="#fbc925" data-color="1"></path>
        <path d="M199 22.71h19.6a9.07 9.07 0 0 1-.17 18.13h-11.66v10.35H199Zm19.6 10.39a1.32 1.32 0 0 0-.1-2.63h-11.7v2.61Zm-42.89-2.63v2.61h11.78a1.32 1.32 0 0 0-.13-2.64h-11.62ZM168 51.19V22.71h19.55A9.06 9.06 0 0 1 194.81 37a9 9 0 0 1 1.58 5.1l.07 9.09h-7.81V42a1.32 1.32 0 0 0-.89-1.1h-12v10.29Zm-31.1-28.48h28.49v7.76h-20.72v2.59h20.72v7.77h-20.72v2.59h20.72v7.77H136.9Zm-31.07 28.48V22.71h7.77v10.35h13V22.71h7.76v28.48h-7.76V40.83h-13v10.36ZM74.75 42.1a9.07 9.07 0 0 0 9.07 9.06h19.42v-7.74H83.82a1.32 1.32 0 0 1-1.33-1.32V31.79a1.33 1.33 0 0 1 1.33-1.32h19.42v-7.76H83.82a9.07 9.07 0 0 0-9.07 9.06ZM1.28 51.18l2.27-2.9 5.61-1.82 4.27 3 4.16-2 8.41-.25L27.93 42l10.35-6.6 4.8 2.73 3.5 5.29h16.78a1.32 1.32 0 0 0-.18-2.62H52.05a9.06 9.06 0 0 1 .7-18.1h19.42v7.76H52.75a1.32 1.32 0 0 0 0 2.64h10.31a9.06 9.06 0 1 1 .07 18.12H1.28Z" fill="#ffcd2c" fill-rule="evenodd" data-color="2"></path>
        <path d="M27 8.9a5.79 5.79 0 0 1-.52-.77C17.94 5.25 12 6 6.69 10.38l-.08-.13C11.38 4.7 19.5 4.83 25.87 6.61v-.05c-7.11-3.31-12.43-3-17.78.16L8 6.6C13 2.13 20.25 3 25.87 5.3c-5.51-3.64-10-3.8-15-2l-.08-.13C15.81-.09 22 1.73 26.53 4.51l.14-.07C22.77.83 19.29.26 14.87.85l-.1-.18c4.8-1.95 9.79.65 13.1 3.69a6.55 6.55 0 0 1 3.57 2.32c1.55 1.85 1.85 3.88.68 4.54s-3.23-.07-4.79-1.91a29 29 0 0 0-4 4l2.24 5.36 5.59-2.11 1.9-1.31 1 1.79-2.23.33-7 2.63-2.17-5.73c-3.65 5.4-2 8.76.8 12.86l9.38-1-.37 9.33 4.81-2.41.17.57L31 37.76l.4-10.27-8 1L17.66 30l-.61 7.62L12 44l1.83 2.06 2.54-.88.36.47-3 1.54-4.15-2.81 1.1-.94 4.9-6.23.82-7.6c-.74-3.37-2.14-7.83.22-12.29l-5 4.89 1.66 6.08 1.39 2-2.34.68v-2.23l-1.84-6.84 4.17-4c-3.54 1.85-7 2.31-8.44.51s.5-5.58 4.45-8.18S19 7 20.52 8.94c.78 1 .62 2.44-.25 4A29.06 29.06 0 0 1 27 8.9" fill="#232221" fill-rule="evenodd" data-color="3"></path>
        <path d="M205.55 24h13.06a7.82 7.82 0 0 1-.15 15.63h-12.91v10.31h-5.27V24h5.27m13.16 10.39h.08a2.57 2.57 0 0 0-.19-5.11h-13v5.1h13.16M186.27 24h1.23a7.85 7.85 0 0 1 7.71 7.81 7.75 7.75 0 0 1-1.42 4.49l-.49.71.48.71a7.76 7.76 0 0 1 1.36 4.41l.06 7.83h-5.3v-8.15a2.57 2.57 0 0 0-1.72-2.14l-.2-.07h-13.49v10.34h-5.27V24h17.05m1.3 10.4h.05a2.57 2.57 0 0 0-.24-5.13h-12.89v5.11h13.08M164.14 24v5.26h-20.72v5.09h20.72v5.27h-20.72v5.09h20.72v5.27h-26V24h26m-31.08 0v26h-5.26V39.58h-15.45v10.36h-5.27V24h5.27v10.31h15.45V24h5.26M102 24v5.26H83.82a2.58 2.58 0 0 0-2.58 2.57V42.1a2.58 2.58 0 0 0 2.58 2.57H102v5.27H83.82A7.82 7.82 0 0 1 76 42.1V31.79A7.83 7.83 0 0 1 83.82 24H102m-31.08 0v5.26H52.75a2.57 2.57 0 0 0 0 5.14h10.39a7.82 7.82 0 0 1 0 15.63H15.21l2.67-1.3 8.12-.27h.86l.29-.8L29 42.83l9.35-6 3.89 2.21 3.33 5 .37.56h17.69a2.57 2.57 0 0 0-.34-5.09H52.1A7.81 7.81 0 0 1 52.75 24h18.17M9 47.84l3 2.09H3.84l.46-.58L9 47.84m197.8-25.13H199v28.48h7.77V40.84h11.66a9.07 9.07 0 0 0 .17-18.13h-11.8Zm11.83 10.39H206.8v-2.63h11.73a1.32 1.32 0 0 1 .1 2.63Zm-31.11-10.39H168v28.48h7.77V40.84h12a1.32 1.32 0 0 1 .89 1.1v9.24h7.81l-.07-9.09a9 9 0 0 0-1.57-5.1 9.07 9.07 0 0 0-7.3-14.27Zm0 10.4h-11.78v-2.64h11.65a1.32 1.32 0 0 1 .13 2.64Zm-22.13-10.4H136.9v28.48h28.49v-7.77h-20.72v-2.59h20.72v-7.77h-20.72v-2.59h20.72v-7.76Zm-31.08 0h-7.76v10.35h-13V22.71h-7.77v28.48h7.77V40.83h13v10.36h7.76V22.71Zm-31.07 0H83.82a9.07 9.07 0 0 0-9.07 9.06V42.1a9.07 9.07 0 0 0 9.07 9.06h19.42v-7.74H83.82a1.32 1.32 0 0 1-1.33-1.32V31.79a1.33 1.33 0 0 1 1.33-1.32h19.42v-7.76Zm-31.07 0H52.75a9.06 9.06 0 0 0-.7 18.1h11.13a1.32 1.32 0 0 1 .18 2.62H46.58l-3.5-5.29-4.8-2.73L27.93 42 26 47.21l-8.43.17-4.16 2-4.27-3-5.59 1.9-2.27 2.9h61.83a9.07 9.07 0 0 0 0-18.13H52.69a1.32 1.32 0 0 1 0-2.64h19.48v-7.7Z" fill="#231f20" data-color="4"></path>
    </g>
</svg>