<?xml version="1.0" encoding="UTF-8" ?>
<!DOCTYPE svg PUBLIC "-//W3C//DTD SVG 1.1//EN" "http://www.w3.org/Graphics/SVG/1.1/DTD/svg11.dtd">
<svg width="231pt" height="67pt" viewBox="0 0 231 67" version="1.1" xmlns="http://www.w3.org/2000/svg">
<g id="#ffffffff">
<path fill="#ffffff" opacity="1.00" d=" M 111.42 1.38 C 114.20 -0.49 117.67 2.95 116.05 5.81 C 114.47 7.66 112.21 8.76 110.58 10.57 C 105.96 15.45 104.21 22.46 104.92 29.04 C 105.73 32.10 101.97 34.62 99.42 32.73 C 97.42 30.63 98.05 27.56 97.96 24.94 C 98.41 15.60 102.97 5.99 111.42 1.38 Z" />
<path fill="#ffffff" opacity="1.00" d=" M 124.33 8.21 C 126.38 7.29 129.29 8.53 129.12 11.03 C 129.50 14.39 125.22 14.73 123.07 16.11 C 117.63 18.51 114.64 24.16 114.06 29.87 C 113.97 32.92 110.31 32.75 108.28 31.81 C 105.72 21.22 114.55 11.01 124.33 8.21 Z" />
<path fill="#ffffff" opacity="1.00" d=" M 129.48 18.67 C 131.27 18.39 133.31 17.87 134.91 19.06 C 137.02 20.43 136.50 24.52 133.77 24.77 C 130.58 25.36 126.69 25.81 124.95 28.97 C 123.78 30.64 123.45 33.41 120.98 33.58 C 118.85 33.98 117.08 32.01 117.26 29.96 C 118.39 24.09 123.71 19.62 129.48 18.67 Z" />
<path fill="#ffffff" opacity="1.00" d=" M 2.71 27.77 C 10.06 23.36 19.56 23.11 27.32 26.64 C 28.41 27.16 29.64 27.68 30.29 28.77 C 32.35 31.00 29.01 34.87 26.45 33.51 C 21.96 31.60 17.06 30.21 12.16 31.30 C 8.76 31.85 5.58 34.57 2.08 32.98 C 1.86 31.32 0.92 28.88 2.71 27.77 Z" />
<path fill="#ffffff" opacity="1.00" d=" M 215.46 24.40 C 218.08 23.43 221.15 26.18 220.34 28.94 C 220.17 32.35 215.06 33.22 213.34 30.55 C 211.99 28.35 212.81 25.10 215.46 24.40 Z" />
<path fill="#ffffff" opacity="1.00" d=" M 225.51 26.53 C 228.51 25.43 231.70 28.91 230.22 31.81 C 229.40 34.44 225.74 34.77 223.82 33.17 C 221.96 31.13 222.54 27.15 225.51 26.53 Z" />
<path fill="#ffffff" opacity="1.00" d=" M 203.42 27.20 C 206.58 24.62 211.68 28.78 209.33 32.23 C 207.88 35.63 202.14 34.46 201.96 30.89 C 201.72 29.47 202.43 28.16 203.42 27.20 Z" />
<path fill="#ffffff" opacity="1.00" d=" M 11.31 37.22 C 19.14 34.49 28.57 39.24 30.61 47.36 C 31.61 52.45 31.15 57.75 31.05 62.91 C 30.87 66.76 25.01 67.80 23.14 64.65 C 21.11 59.08 24.41 52.29 20.72 47.26 C 17.16 42.76 9.11 46.34 9.97 51.97 C 9.85 56.15 14.25 57.74 17.67 58.23 C 21.74 59.15 21.17 66.22 16.94 66.38 C 9.98 67.25 3.18 62.00 1.55 55.31 C -0.78 47.94 4.13 39.59 11.31 37.22 Z" />
<path fill="#ffffff" opacity="1.00" d=" M 38.28 37.10 C 40.62 35.88 43.83 36.67 44.83 39.25 C 45.19 41.78 45.00 44.36 45.12 46.92 C 48.28 47.00 51.44 47.02 54.59 46.87 C 54.61 44.31 54.38 41.71 54.94 39.19 C 56.02 35.29 63.00 35.82 63.12 40.05 C 63.39 47.67 63.37 55.32 63.14 62.94 C 63.09 67.22 55.97 67.79 54.92 63.81 C 54.34 61.29 54.62 58.69 54.60 56.13 C 51.44 55.98 48.28 56.00 45.12 56.08 C 44.65 59.24 46.10 63.16 43.51 65.63 C 40.89 67.63 36.57 66.10 36.35 62.65 C 35.99 56.77 36.34 50.86 36.20 44.96 C 36.24 42.28 35.79 38.90 38.28 37.10 Z" />
<path fill="#ffffff" opacity="1.00" d=" M 66.67 43.27 C 64.68 40.79 66.67 36.43 69.97 36.61 C 77.29 36.45 84.63 36.38 91.94 36.68 C 95.11 36.86 96.21 41.13 94.56 43.43 C 92.28 46.32 88.18 44.78 85.03 45.15 C 84.55 51.23 85.39 57.41 84.55 63.44 C 83.63 67.81 76.49 67.28 76.08 62.90 C 75.81 57.00 76.11 51.08 75.93 45.18 C 72.86 44.79 68.71 46.33 66.67 43.27 Z" />
<path fill="#ffffff" opacity="1.00" d=" M 105.38 37.38 C 113.47 34.29 123.58 39.40 125.18 48.06 C 127.40 56.21 121.39 65.33 112.99 66.34 C 104.76 68.02 96.09 61.43 95.67 53.02 C 94.79 46.36 99.04 39.56 105.38 37.38 M 108.52 45.61 C 104.34 46.95 102.75 52.85 106.12 55.87 C 108.90 59.09 114.51 58.05 116.18 54.22 C 118.96 49.68 113.33 43.43 108.52 45.61 Z" />
<path fill="#ffffff" opacity="1.00" d=" M 130.66 37.67 C 133.19 35.05 138.48 37.19 138.04 40.98 C 138.77 46.55 136.68 52.70 139.34 57.84 C 140.55 57.71 141.90 57.73 142.78 56.74 C 143.72 51.06 142.49 45.22 143.44 39.57 C 144.46 35.61 150.37 35.63 151.83 39.27 C 152.37 44.79 151.68 50.36 152.16 55.89 C 152.57 58.08 155.50 58.32 156.76 56.73 C 157.60 51.00 156.26 45.07 157.45 39.41 C 158.60 35.19 165.33 35.89 165.90 40.14 C 166.17 44.77 165.93 49.42 166.02 54.06 C 166.33 58.72 163.72 63.49 159.42 65.45 C 155.66 67.32 151.36 66.36 147.77 64.61 C 145.20 65.28 142.74 66.68 139.99 66.43 C 135.17 66.43 130.75 62.73 129.75 58.04 C 128.76 53.76 129.38 49.32 129.20 44.97 C 129.29 42.53 128.81 39.61 130.66 37.67 Z" />
<path fill="#ffffff" opacity="1.00" d=" M 170.97 40.02 C 171.14 35.93 177.85 35.26 179.11 39.00 C 179.98 42.08 179.35 45.33 179.81 48.48 C 184.43 45.21 187.58 40.26 192.20 36.99 C 195.77 34.91 200.12 39.23 198.07 42.80 C 195.89 46.00 192.63 48.26 190.12 51.19 C 191.75 55.28 197.57 57.22 198.51 61.95 C 198.99 65.63 194.23 67.90 191.50 65.59 C 187.36 62.17 184.14 57.75 179.80 54.56 C 179.44 57.70 179.94 60.93 179.13 64.01 C 177.90 67.80 171.09 67.12 170.96 62.98 C 170.78 55.33 170.78 47.67 170.97 40.02 Z" />
<path fill="#ffffff" opacity="1.00" d=" M 203.61 42.56 C 208.85 34.76 221.47 34.60 227.27 41.81 C 231.49 46.65 230.80 53.47 231.00 59.44 L 231.00 62.73 C 230.11 66.52 224.62 68.07 222.60 64.39 C 220.83 59.40 223.14 53.68 221.28 48.69 C 219.41 44.60 213.25 43.99 210.71 47.77 C 207.84 51.16 210.04 56.91 214.44 57.52 C 217.18 57.98 220.82 59.39 220.05 62.87 C 219.21 67.63 212.96 66.84 209.65 65.32 C 200.95 61.92 197.88 49.85 203.61 42.56 Z" />
</g>
</svg>
