<svg viewBox="0 0 178 52" xmlns="http://www.w3.org/2000/svg" fill='white'>
    <g clip-path="url(#pa)">
       <path d="M5.655 9.435v.551c0 .578.122 1.13.27 1.68l8.118 21.72c.04.12.23.846.23 1.397h.392c0-.148.027-.591.27-1.398l5.615-18.56-.784-2.608c-.555-1.828-.907-2.42-2.314-2.42h-.906v-.349h8.794v.35h-3.734v.08c.554.189 1.014 1.09 1.217 1.788l6.548 21.72c.176.685.23 1.115.23 1.397h.555c0-.309.081-.78.352-1.519l7.725-21.087c.162-.444.257-.833.257-1.143 0-.806-.568-1.236-1.948-1.236h-1.489v-.35h6.67v.35h-.595c-1.258 0-1.61.9-2.165 2.42l-9.308 25.415-2.191.188-6.589-21.76-6.52 21.598-2.193.162-9.294-25.617c-.595-1.909-.866-2.42-2.273-2.42H0v-.349h5.655zM45.417 22.741c0 9.328 4.315 14.354 11.026 14.354 5.262 0 9.402-2.258 11.689-6.048l.568.43c-2.422 3.965-6.805 6.317-12.38 6.317-8.238 0-14.407-5.766-14.407-14.421 0-8.656 5.79-14.233 14.476-14.233 6.832 0 12.554 4.73 12.554 11.814v.188c0 .631-.554 1.129-1.217 1.129H45.403v.47h.014zm19.738-1.438c.203 0 .311-.121.311-.35 0-6.666-3.693-11.114-9.226-11.114-6.71 0-10.458 4.099-10.81 11.733l19.712-.269h.013zM88.168 35.764h.622c2.002 0 2.314-.591 2.435-2.768l1.056-22.5c.013-.308.04-.59.04-.819 0-.887-.27-1.25-1.962-1.25H88.79v-.35h5.763l10.161 22.338c.351.78.595 1.438.595 1.68h.203c0-.228.27-1.088.555-1.68l10.16-22.337h5.885v.35h-1.339c-1.908 0-2.192.577-2.192 1.706 0 .31.027.659.04 1.048l.907 21.8c.081 2.218.352 2.769 2.516 2.769h.866v.35h-10.241v-.35h1.407c2.151 0 2.408-.565 2.408-1.492 0-.215 0-.443-.014-.685l-.784-20.55c-.041-.7-.041-1.29-.041-1.72h-.23c0 .12-.271.779-.622 1.599L104.24 36.262l-.122.269h-.081l-.122-.27-10.403-22.928c-.352-.78-.433-1.519-.433-1.64h-.162c0 .35 0 .618-.041 1.33l-.988 20.47c-.013.336-.04.632-.04.887 0 .94.324 1.384 2.475 1.384h1.408v.35h-7.577v-.35h.014zM127.253 21.384c0 9.327 4.316 14.354 11.026 14.354 5.263 0 9.403-2.258 11.689-6.048l.568.43c-2.421 3.965-6.805 6.317-12.379 6.317-8.239 0-14.408-5.766-14.408-14.422 0-8.655 5.79-14.233 14.476-14.233 6.832 0 12.555 4.731 12.555 11.814v.188c0 .632-.555 1.13-1.218 1.13h-22.323v.47h.014zm19.739-1.438c.203 0 .311-.121.311-.35 0-6.666-3.694-11.115-9.227-11.115-6.71 0-10.458 4.1-10.809 11.733l19.711-.268h.014zM151.578 35.764h1.38c1.881 0 2.084-.201 2.084-2.07V10.847c0-1.868-.203-2.419-2.084-2.419h-1.38v-.35h11.067c9.213 0 15.342 5.605 15.342 13.992S171.844 36.1 162.645 36.1h-11.067v-.35.014zm10.012-.35c8.469 0 13.028-4.663 13.028-13.332S170.059 8.79 161.59 8.79h-4.154v.04c.474.47.663.941.663 1.828v22.889c0 .9-.203 1.357-.663 1.828v.04h4.154z" fill="white"/>
            <path d="M57.444 41.047c-5.29-1.479-9.998-5.014-12.84-9.798-2.867-4.772-3.584-10.793-1.934-16.142a21.009 21.009 0 0 1 3.978-7.271 22.144 22.144 0 0 1 6.412-5.201C57.93.027 63.775-.725 69.173.726c5.398 1.398 10.201 5.067 12.934 9.973a21.414 21.414 0 0 1 2.611 7.943c.338 2.782.054 5.645-.717 8.333-1.542 5.403-5.412 10.093-10.417 12.606-4.979 2.54-10.864 3.025-16.127 1.465h-.013zm.04-.121c2.639.712 5.398.94 8.09.578a20.362 20.362 0 0 0 7.59-2.648c4.627-2.715 8.104-7.164 9.565-12.244 1.448-5.067.88-10.685-1.677-15.335-2.53-4.664-6.927-8.293-12.082-9.879C63.83-.215 57.986.336 53.264 3.024c-4.762 2.608-8.212 7.271-9.592 12.379-1.434 5.12-.838 10.711 1.624 15.47a20.454 20.454 0 0 0 5.02 6.262c2.083 1.734 4.545 3.011 7.156 3.79h.013z" fill="white"/>
            <path d="M79.076 9.314a1.74 1.74 0 0 0 1.746-1.734 1.74 1.74 0 0 0-1.746-1.733 1.74 1.74 0 0 0-1.745 1.733 1.74 1.74 0 0 0 1.745 1.734zM51.437 51.839h.04s.068-.014.109-.054c.027-.027.054-.067.081-.107.027-.04.04-.094.054-.135 0-.053.014-.094.014-.134v-4.18l-2.07 4.785-1.962-4.543v3.938s0 .094.014.134c0 .054.027.094.054.135.027.04.054.08.08.107.028.027.068.054.109.054H48v.08h-.865v-.08h.04s.068-.014.109-.054c.027-.027.054-.067.08-.107.028-.04.041-.094.055-.135 0-.053.013-.094.013-.134v-4.234s0-.08-.013-.12c-.014-.041-.027-.095-.054-.135-.027-.04-.054-.08-.081-.108a.154.154 0 0 0-.109-.04h-.04v-.08h.812l1.853 4.354 1.853-4.355h.907v.081h-.04s-.082.014-.109.04a.742.742 0 0 0-.081.108c-.027.04-.04.094-.054.134-.014.04-.014.094-.014.121v4.234s0 .094.014.134c0 .054.027.094.054.135.027.04.054.08.081.107.027.027.068.054.108.054h.04v.08h-1.136v-.08h.014zM54.981 50.307c.028.188.068.363.136.524.068.161.162.31.27.444.109.12.257.228.42.309.162.08.351.107.581.107.122 0 .244-.013.38-.054.135-.04.256-.08.365-.147.108-.068.216-.148.297-.229a.795.795 0 0 0 .176-.309h.068v.591s-.068 0-.108.027c-.041.027-.082.054-.136.08a2.646 2.646 0 0 1-.433.203c-.175.067-.42.107-.717.107-.243 0-.473-.04-.69-.108a1.489 1.489 0 0 1-.568-.322 1.516 1.516 0 0 1-.392-.551 2.024 2.024 0 0 1-.149-.793c0-.202.027-.39.095-.592.067-.201.162-.39.297-.55a1.42 1.42 0 0 1 .528-.39c.216-.094.473-.148.771-.148.27 0 .5.04.704.134a1.4 1.4 0 0 1 .5.377c.135.16.23.349.298.564.067.215.095.457.095.712h-2.774l-.014.014zm1.164-1.532c-.19 0-.352.04-.487.107a1.203 1.203 0 0 0-.352.282 1.311 1.311 0 0 0-.23.404c-.054.148-.08.295-.108.443h2.273a1.447 1.447 0 0 0-.298-.86.974.974 0 0 0-.338-.282 1.067 1.067 0 0 0-.473-.108l.013.014zM62.165 51.92v-.35a2.148 2.148 0 0 1-.365.282c-.149.081-.338.122-.568.122-.284 0-.528-.054-.744-.148a1.421 1.421 0 0 1-.528-.39 1.579 1.579 0 0 1-.311-.551 1.988 1.988 0 0 1-.095-.632c0-.215.04-.416.108-.632.068-.215.176-.39.312-.564.135-.175.31-.296.514-.403a1.706 1.706 0 0 1 1.258-.054c.176.067.311.148.42.255V47.31c0-.094 0-.175-.041-.256-.027-.08-.108-.12-.23-.12v-.081l.798-.242v4.771s0 .094.013.135c0 .053.027.094.055.134.027.04.054.08.08.107.028.027.068.054.109.054v.08h-.785v.028zm-.88-.202a.936.936 0 0 0 .326-.067.806.806 0 0 0 .284-.188c.08-.08.148-.162.203-.27a.724.724 0 0 0 .08-.335v-1.089a.806.806 0 0 0-.094-.403 1.368 1.368 0 0 0-.243-.31.84.84 0 0 0-.312-.187 1.01 1.01 0 0 0-.338-.067.918.918 0 0 0-.473.12c-.136.081-.257.189-.352.323a1.692 1.692 0 0 0-.216.444 1.495 1.495 0 0 0-.068.483 1.942 1.942 0 0 0 .311 1.049c.095.148.23.269.379.363a.957.957 0 0 0 .514.147v-.013zM65.047 51.92v-.08s.081-.014.109-.055c.026-.04.054-.067.08-.107.028-.04.041-.094.055-.135 0-.053.013-.094.013-.134v-2.204c0-.094 0-.175-.04-.255-.027-.081-.108-.122-.23-.135v-.067l.798-.255v2.916s0 .094.013.134c0 .054.028.095.055.135.027.04.054.08.08.107.028.027.068.054.109.054v.08h-1.042zm.04-4.194c0-.107.041-.201.109-.268.068-.081.162-.108.27-.108a.38.38 0 0 1 .271.108c.081.067.108.16.108.268 0 .108-.04.189-.108.256a.404.404 0 0 1-.27.107.404.404 0 0 1-.271-.107.366.366 0 0 1-.108-.256zM71.094 51.624s-.08 0-.121.027c-.041.027-.082.04-.122.067a2.667 2.667 0 0 1-.338.161c-.136.054-.325.081-.542.081-.27 0-.527-.04-.757-.134a1.768 1.768 0 0 1-.596-.363 1.639 1.639 0 0 1-.527-1.237c0-.228.04-.443.122-.645.08-.202.203-.39.351-.551.15-.161.352-.282.569-.376a2.02 2.02 0 0 1 .77-.148c.204 0 .352.027.474.067.122.04.23.094.311.135.055.026.095.053.136.067.04.013.094.026.135.026v.605h-.081a.759.759 0 0 0-.149-.268.887.887 0 0 0-.244-.202 1.155 1.155 0 0 0-.297-.121 1.365 1.365 0 0 0-.893.08 1.173 1.173 0 0 0-.65.726 1.673 1.673 0 0 0 .014 1.075c.068.189.162.35.27.511.109.162.271.27.433.363.176.094.366.135.582.135a1.283 1.283 0 0 0 .73-.229.86.86 0 0 0 .217-.228.632.632 0 0 0 .095-.229h.081v.618l.027-.013zM74.937 51.92v-.404l-.041.04a1.32 1.32 0 0 1-.46.31 1.717 1.717 0 0 1-.622.107c-.19 0-.352-.026-.474-.067a1.061 1.061 0 0 1-.325-.175.75.75 0 0 1-.189-.268.851.851 0 0 1-.054-.323c0-.175.054-.336.149-.484.094-.148.243-.255.433-.363.19-.107.42-.201.69-.295a9.75 9.75 0 0 1 .92-.256c0-.201-.055-.376-.122-.497a.82.82 0 0 0-.27-.296.894.894 0 0 0-.325-.148 1.303 1.303 0 0 0-.284-.04 1.04 1.04 0 0 0-.366.067.9.9 0 0 0-.27.162 1.013 1.013 0 0 0-.203.215c-.054.08-.095.148-.122.215h-.068v-.578s.082-.014.122-.04c.04-.027.081-.04.135-.068.081-.026.19-.08.325-.134.135-.054.338-.094.582-.094.297 0 .527.04.717.107.176.081.325.175.42.296.094.121.162.255.189.417.027.161.054.322.054.484v1.572c0 .108.027.202.067.296.055.094.109.134.19.134v.08h-.771l-.027.028zm0-.753v-1.142h-.082c-.121.053-.284.094-.473.147-.19.054-.352.121-.528.202-.162.08-.31.188-.42.296a.55.55 0 0 0-.175.403c0 .175.068.31.203.417.135.107.325.16.541.16a.87.87 0 0 0 .46-.12 1.53 1.53 0 0 0 .365-.296l.081-.094.028.027zM77.71 51.92v-.081s.081-.013.108-.054c.028-.027.055-.067.082-.107.027-.04.04-.094.054-.135 0-.053.013-.094.013-.134v-4.072a.777.777 0 0 0-.04-.256c-.027-.08-.109-.12-.244-.12v-.081l.812-.242v4.771s0 .094.013.134c0 .054.027.094.055.135a.74.74 0 0 0 .08.107c.028.027.068.054.109.054v.08H77.71zM88.763 51.328c.108.095.217.175.325.256.095.067.19.12.284.175.095.053.176.08.257.08v.08h-.446c-.203 0-.38-.04-.542-.12-.148-.08-.297-.161-.446-.269l-.798-.618c-.284.39-.582.659-.893.833-.311.175-.65.256-1.015.256-.243 0-.46-.04-.65-.108a1.309 1.309 0 0 1-.771-.699 1.263 1.263 0 0 1-.108-.497c0-.363.095-.672.285-.928.189-.255.5-.483.933-.698-.257-.215-.46-.417-.595-.632a1.137 1.137 0 0 1-.203-.645c0-.148.027-.296.095-.444.054-.134.135-.255.243-.363.108-.107.23-.188.379-.242.135-.067.297-.094.473-.094.203 0 .38.04.542.108.148.067.284.161.392.269.108.107.19.242.243.39.055.147.082.295.082.443 0 .202-.068.403-.19.618-.122.215-.338.403-.636.578.244.202.5.417.758.632.257.215.514.43.771.632.108-.215.19-.43.257-.632.068-.215.122-.403.162-.578a3.83 3.83 0 0 0 .082-.47c.013-.135.013-.229.013-.283a.265.265 0 0 0-.081-.188.239.239 0 0 0-.176-.08v-.081h.825v.08s-.108.027-.162.081c-.054.054-.095.108-.095.188-.027.283-.08.538-.135.807-.054.228-.108.457-.19.699a2.495 2.495 0 0 1-.297.631c.108.094.216.202.338.296.122.108.244.202.366.296l.338.282-.014-.04zm-3.044.377c.257 0 .528-.094.785-.269.257-.175.5-.417.703-.699-.297-.242-.595-.497-.892-.739-.312-.255-.61-.497-.893-.74-.325.162-.569.35-.718.579-.148.228-.23.457-.23.685 0 .148.028.282.095.417.068.134.15.269.27.376.123.108.244.202.407.269.148.067.324.107.5.12h-.027zm-.852-3.951c.04.188.135.362.311.55.176.175.352.35.555.511a.968.968 0 0 0 .473-.39.945.945 0 0 0 .163-.51 1.144 1.144 0 0 0-.23-.712 1.064 1.064 0 0 0-.298-.242.84.84 0 0 0-.42-.095.508.508 0 0 0-.419.202.759.759 0 0 0-.162.497v.08s0 .055.013.082l.014.027zM97.692 51.84h.041c.122 0 .19-.055.19-.176 0-.04 0-.08-.028-.134l-.717-1.935h-1.407l-.69 1.895s-.027.08-.027.12c0 .068.014.122.055.162.04.04.08.054.121.054h.04v.08h-.892v-.08h.04c.068 0 .136-.04.203-.121a.886.886 0 0 0 .163-.296l1.826-4.852 1.8 4.798c.04.108.094.215.162.31.067.107.149.147.257.147h.04v.08h-1.19v-.08l.013.027zm-1.826-2.514h1.231l-.622-1.667-.622 1.667h.013zM100.993 50.307c.027.188.068.363.136.524.067.161.162.31.27.444.108.12.257.228.42.309.162.08.351.107.581.107.122 0 .244-.013.379-.054.135-.04.257-.08.365-.147.109-.068.217-.148.298-.229a.797.797 0 0 0 .176-.309h.068v.591s-.068 0-.109.027c-.04.027-.081.054-.135.08a2.63 2.63 0 0 1-.433.203 2.062 2.062 0 0 1-.717.107c-.243 0-.473-.04-.69-.108a1.488 1.488 0 0 1-.568-.322 1.512 1.512 0 0 1-.393-.551 2.037 2.037 0 0 1-.148-.793c0-.202.027-.39.094-.592a1.69 1.69 0 0 1 .298-.55c.135-.162.311-.296.528-.39.216-.094.473-.148.771-.148.27 0 .5.04.703.134a1.4 1.4 0 0 1 .501.377c.135.16.23.349.298.564.067.215.094.457.094.712h-2.773l-.014.014zm1.164-1.532c-.19 0-.352.04-.487.107a1.199 1.199 0 0 0-.352.282 1.303 1.303 0 0 0-.23.404 2.653 2.653 0 0 0-.108.443h2.273c0-.148-.027-.309-.082-.457a1.436 1.436 0 0 0-.216-.403.978.978 0 0 0-.812-.39l.014.014zM108.231 51.006c0 .134-.04.269-.108.376-.067.121-.162.215-.284.31a1.107 1.107 0 0 1-.419.2c-.163.041-.338.081-.514.081-.23 0-.42-.026-.555-.094-.149-.067-.271-.12-.365-.188-.068-.04-.136-.08-.19-.107a.434.434 0 0 0-.189-.04v-.605h.081a.56.56 0 0 0 .135.242c.081.094.176.16.284.241.109.068.23.135.366.189.135.053.257.08.392.08.095 0 .189 0 .298-.027a.865.865 0 0 0 .473-.282.412.412 0 0 0 .081-.255.356.356 0 0 0-.094-.256c-.054-.08-.136-.134-.23-.201-.095-.054-.19-.108-.311-.148-.122-.04-.23-.08-.352-.121a5.23 5.23 0 0 1-.42-.148c-.135-.054-.27-.107-.378-.188a.856.856 0 0 1-.271-.269.67.67 0 0 1-.108-.363c0-.12.027-.242.067-.35a.774.774 0 0 1 .23-.295c.109-.08.244-.148.406-.201.163-.054.366-.081.596-.081.202 0 .365.013.487.054.108.04.216.067.284.107.054.027.094.054.148.054.055 0 .109.013.163.013v.551h-.068a.935.935 0 0 0-.446-.403 1.427 1.427 0 0 0-.609-.134.848.848 0 0 0-.338.053c-.095.04-.176.081-.23.121a.472.472 0 0 0-.176.363c0 .094.027.162.081.229a.6.6 0 0 0 .203.161c.095.054.189.094.298.135.108.04.23.08.351.12.149.054.298.095.447.162.149.054.284.12.406.201.121.081.216.175.284.283a.737.737 0 0 1 .108.39l-.014.04zM110.91 48.855v2.285a.89.89 0 0 0 .041.282.43.43 0 0 0 .094.175c.041.04.109.054.176.054.109 0 .217-.054.311-.161a.766.766 0 0 0 .19-.377h.067v.578s-.081.014-.121.054a.99.99 0 0 1-.176.12.775.775 0 0 1-.352.068.84.84 0 0 1-.446-.107.551.551 0 0 1-.23-.296 1.247 1.247 0 0 1-.082-.403v-2.258h-.446V48.6h.446v-.712c0-.094 0-.175-.04-.256-.027-.08-.108-.12-.23-.12v-.081l.798-.256v1.412h.893v.268h-.893zM116.822 51.395s0 .095.014.135c0 .054.027.094.054.134.027.04.054.081.081.108.027.027.068.054.108.054v.08h-1.028v-.08s.068-.014.109-.054c.04-.04.054-.067.081-.108.027-.04.04-.094.054-.134 0-.054.013-.094.013-.135v-1.478c0-.188-.027-.363-.081-.497a.971.971 0 0 0-.216-.363 1.001 1.001 0 0 0-.311-.215 1.026 1.026 0 0 0-.352-.067c-.122 0-.23.027-.352.067a.872.872 0 0 0-.298.188.808.808 0 0 0-.216.296.856.856 0 0 0-.081.376v1.694s0 .094.013.134c0 .054.027.094.054.134.027.04.055.081.082.108.027.027.067.054.108.054v.08h-1.042v-.08s.068-.014.108-.054c.027-.027.054-.067.081-.108.028-.04.041-.094.055-.134 0-.054.013-.094.013-.135v-4.058c0-.095 0-.175-.04-.256-.028-.08-.109-.12-.23-.12v-.081l.798-.242v2.298s.081-.094.149-.134c.054-.054.135-.094.216-.148.081-.04.176-.08.284-.108.108-.027.244-.04.392-.04.258 0 .46.04.636.12.176.082.325.189.433.337a1.498 1.498 0 0 1 .325.914v1.532l-.014-.014zM119.501 50.307c.027.188.068.363.135.524.068.161.163.31.271.444.108.12.257.228.419.309.163.08.352.107.582.107.122 0 .244-.013.379-.054.135-.04.257-.08.365-.147a1.74 1.74 0 0 0 .298-.229.797.797 0 0 0 .176-.309h.067v.591s-.067 0-.108.027c-.041.027-.081.054-.135.08a2.63 2.63 0 0 1-.433.203c-.176.067-.42.107-.717.107-.244 0-.474-.04-.69-.108a1.48 1.48 0 0 1-.568-.322 1.512 1.512 0 0 1-.393-.551 2.037 2.037 0 0 1-.149-.793c0-.202.028-.39.095-.592a1.69 1.69 0 0 1 .298-.55 1.42 1.42 0 0 1 .527-.39c.217-.094.474-.148.772-.148.27 0 .5.04.703.134.203.094.365.215.501.377.135.16.23.349.297.564.068.215.095.457.095.712h-2.773l-.014.014zm1.164-1.532c-.19 0-.352.04-.487.107a1.186 1.186 0 0 0-.352.282 1.303 1.303 0 0 0-.23.404 2.653 2.653 0 0 0-.108.443h2.272a1.462 1.462 0 0 0-.297-.86.978.978 0 0 0-.812-.39l.014.014zM124.926 48.855v2.285a.89.89 0 0 0 .041.282c.027.081.054.135.095.175.04.04.108.054.175.054.109 0 .217-.054.312-.161a.773.773 0 0 0 .189-.377h.068v.578s-.082.014-.122.054a.99.99 0 0 1-.176.12.771.771 0 0 1-.352.068.84.84 0 0 1-.446-.107.556.556 0 0 1-.23-.296 1.247 1.247 0 0 1-.081-.403v-2.258h-.447V48.6h.447v-.712c0-.094 0-.175-.041-.256-.027-.08-.108-.12-.23-.12v-.081l.798-.256v1.412h.893v.268h-.893zM127.74 51.92v-.08s.081-.014.108-.055c.027-.04.054-.067.081-.107.028-.04.041-.094.055-.135 0-.053.013-.094.013-.134v-2.204c0-.094 0-.175-.04-.255-.028-.081-.109-.122-.23-.135v-.067l.798-.255v2.916s0 .094.013.134c0 .054.027.095.054.135.027.04.055.08.082.107.027.027.067.054.108.054v.08h-1.042zm.041-4.194c0-.107.04-.201.108-.268.068-.081.162-.108.27-.108a.38.38 0 0 1 .271.108c.081.067.108.16.108.268 0 .108-.04.189-.108.256a.403.403 0 0 1-.271.107.402.402 0 0 1-.27-.107.364.364 0 0 1-.108-.256zM133.788 51.624s-.082 0-.122.027c-.041.027-.081.04-.122.067a2.704 2.704 0 0 1-.338.161c-.135.054-.325.081-.541.081-.271 0-.528-.04-.758-.134a1.763 1.763 0 0 1-.595-.363 1.635 1.635 0 0 1-.528-1.237 1.714 1.714 0 0 1 .474-1.196 1.67 1.67 0 0 1 .568-.376 2.02 2.02 0 0 1 .771-.148c.203 0 .352.027.474.067.121.04.23.094.311.135.054.026.094.053.135.067a.49.49 0 0 0 .135.026v.605h-.081a.752.752 0 0 0-.149-.268.87.87 0 0 0-.243-.202 1.165 1.165 0 0 0-.298-.121 1.368 1.368 0 0 0-.893.08 1.179 1.179 0 0 0-.649.726 1.686 1.686 0 0 0 .013 1.075c.068.189.163.35.271.511.108.162.271.27.433.363.176.094.365.135.582.135a1.29 1.29 0 0 0 .73-.229.855.855 0 0 0 .217-.228.622.622 0 0 0 .094-.229h.082v.618l.027-.013z" fill="white"/>
        </g>
</svg>
