<svg xmlns="http://www.w3.org/2000/svg" width="2012" height="602" viewBox="0 0 2012 602" fill="none">
  <path d="M629.191 381.264V231.594C629.191 228.469 630.313 225.784 632.557 223.54C634.801 221.296 637.566 220.174 640.852 220.174H663.212C666.338 220.174 668.983 221.296 671.147 223.54C673.391 225.784 674.513 228.469 674.513 231.594V285.692H757.222V231.594C757.222 228.469 758.344 225.784 760.588 223.54C762.832 221.296 765.517 220.174 768.642 220.174H791.003C794.289 220.174 797.014 221.296 799.178 223.54C801.422 225.784 802.544 228.469 802.544 231.594V381.264C802.544 384.39 801.382 387.075 799.057 389.319C796.813 391.483 794.128 392.565 791.003 392.565H768.642C765.517 392.565 762.832 391.523 760.588 389.439C758.344 387.275 757.222 384.63 757.222 381.505V319.713H674.513V381.505C674.513 384.63 673.391 387.275 671.147 389.439C668.983 391.523 666.338 392.565 663.212 392.565H640.852C637.726 392.565 635.002 391.483 632.677 389.319C630.353 387.075 629.191 384.39 629.191 381.264Z" fill="#FAFAFA"/>
  <path d="M822.98 381.505L853.155 267.058C861.33 235.882 887.938 220.254 932.979 220.174H997.776C1000.74 220.174 1003.19 221.296 1005.11 223.54C1007.11 225.784 1008.11 228.389 1008.11 231.354V381.505C1008.11 384.63 1006.99 387.275 1004.75 389.439C1002.5 391.523 999.819 392.565 996.694 392.565H974.093C970.807 392.565 968.082 391.523 965.918 389.439C963.834 387.275 962.793 384.55 962.793 381.264V350.97H877.318L869.264 381.264C868.462 384.55 866.659 387.275 863.854 389.439C861.049 391.523 858.084 392.565 854.958 392.565H831.275C828.15 392.565 825.906 391.683 824.543 389.92C823.181 388.077 822.5 386.474 822.5 385.111C822.58 383.749 822.74 382.547 822.98 381.505ZM886.214 316.948H962.793V254.195H928.531C920.837 254.195 914.105 256.399 908.334 260.807C902.644 265.135 898.797 270.985 896.794 278.359L886.214 316.948Z" fill="#FAFAFA"/>
  <path d="M1042.5 381.024V231.835C1042.5 228.549 1043.58 225.784 1045.74 223.54C1047.91 221.296 1050.55 220.174 1053.68 220.174H1102.6C1105.73 220.174 1108.7 221.296 1111.5 223.54C1114.31 225.784 1116.19 228.469 1117.15 231.594L1152.61 334.26L1188.08 231.594C1189.04 228.469 1190.92 225.784 1193.73 223.54C1196.53 221.296 1199.5 220.174 1202.62 220.174H1251.55C1254.68 220.174 1257.28 221.296 1259.37 223.54C1261.53 225.784 1262.61 228.549 1262.61 231.835V381.024C1262.61 384.31 1261.49 387.075 1259.25 389.319C1257.08 391.483 1254.44 392.565 1251.31 392.565H1229.67C1226.55 392.565 1223.86 391.483 1221.62 389.319C1219.46 387.075 1218.37 384.31 1218.37 381.024V263.572L1175.94 381.745C1174.81 384.711 1172.85 387.275 1170.05 389.439C1167.24 391.523 1164.28 392.565 1161.15 392.565H1143.96C1140.83 392.565 1137.87 391.523 1135.06 389.439C1132.34 387.275 1130.37 384.711 1129.17 381.745L1086.86 263.572V381.024C1086.86 384.31 1085.73 387.075 1083.49 389.319C1081.33 391.483 1078.68 392.565 1075.56 392.565H1053.92C1050.79 392.565 1048.11 391.483 1045.86 389.319C1043.62 387.075 1042.5 384.31 1042.5 381.024Z" fill="#FAFAFA"/>
  <path d="M1297.12 381.024V231.835C1297.12 228.549 1298.2 225.784 1300.36 223.54C1302.53 221.296 1305.17 220.174 1308.3 220.174H1357.22C1360.35 220.174 1363.31 221.296 1366.12 223.54C1368.92 225.784 1370.81 228.469 1371.77 231.594L1407.23 334.26L1442.7 231.594C1443.66 228.469 1445.54 225.784 1448.35 223.54C1451.15 221.296 1454.12 220.174 1457.24 220.174H1506.17C1509.3 220.174 1511.9 221.296 1513.99 223.54C1516.15 225.784 1517.23 228.549 1517.23 231.835V381.024C1517.23 384.31 1516.11 387.075 1513.87 389.319C1511.7 391.483 1509.06 392.565 1505.93 392.565H1484.29C1481.17 392.565 1478.48 391.483 1476.24 389.319C1474.07 387.075 1472.99 384.31 1472.99 381.024V263.572L1430.56 381.745C1429.43 384.711 1427.47 387.275 1424.67 389.439C1421.86 391.523 1418.89 392.565 1415.77 392.565H1398.58C1395.45 392.565 1392.49 391.523 1389.68 389.439C1386.96 387.275 1384.99 384.711 1383.79 381.745L1341.48 263.572V381.024C1341.48 384.31 1340.35 387.075 1338.11 389.319C1335.95 391.483 1333.3 392.565 1330.17 392.565H1308.54C1305.41 392.565 1302.73 391.483 1300.48 389.319C1298.24 387.075 1297.12 384.31 1297.12 381.024Z" fill="#FAFAFA"/>
  <path d="M1551.73 381.024V231.354C1551.73 228.228 1552.86 225.584 1555.1 223.42C1557.34 221.256 1560.03 220.174 1563.16 220.174H1701.77C1704.89 220.174 1707.54 221.296 1709.7 223.54C1711.94 225.784 1713.07 228.469 1713.07 231.594V242.895C1713.07 246.02 1711.94 248.705 1709.7 250.949C1707.54 253.113 1704.89 254.195 1701.77 254.195H1597.06V289.178H1687.22C1690.34 289.178 1692.99 290.3 1695.15 292.544C1697.4 294.708 1698.52 297.353 1698.52 300.479V311.779C1698.52 314.905 1697.4 317.589 1695.15 319.834C1692.99 321.997 1690.34 323.079 1687.22 323.079H1597.06V358.543H1701.52C1704.57 358.543 1707.17 359.625 1709.34 361.789C1711.5 363.953 1712.58 366.598 1712.58 369.723V381.264C1712.58 384.39 1711.46 387.075 1709.22 389.319C1706.97 391.483 1704.29 392.565 1701.16 392.565H1563.16C1560.03 392.565 1557.34 391.483 1555.1 389.319C1552.86 387.075 1551.73 384.31 1551.73 381.024Z" fill="#FAFAFA"/>
  <path d="M1914.19 387.395C1914.19 390.842 1912.14 392.565 1908.06 392.565H1879.2C1876.16 392.565 1872.79 391.483 1869.11 389.319C1865.5 387.075 1862.74 384.39 1860.81 381.264L1840.38 349.287C1831.96 336.143 1821.78 329.571 1809.84 329.571H1780.51V381.264C1780.51 384.39 1779.39 387.075 1777.14 389.319C1774.98 391.483 1772.33 392.565 1769.21 392.565H1746.61C1743.48 392.565 1740.8 391.483 1738.55 389.319C1736.31 387.075 1735.19 384.39 1735.19 381.264V231.594C1735.19 228.469 1736.27 225.784 1738.43 223.54C1740.6 221.296 1743.24 220.174 1746.37 220.174H1845.54C1863.9 220.174 1878.92 225.103 1890.63 234.96C1902.41 244.818 1908.3 258.122 1908.3 274.872C1908.3 298.195 1893.19 312.821 1862.98 318.752C1867.78 320.515 1872.23 323.56 1876.32 327.888C1880.41 332.136 1885.1 338.347 1890.39 346.522L1912.26 381.264C1913.55 383.508 1914.19 385.552 1914.19 387.395ZM1780.51 295.55H1831.72C1839.97 295.55 1847.23 293.907 1853.48 290.621C1859.81 287.335 1862.98 282.085 1862.98 274.872C1862.98 267.659 1859.81 262.41 1853.48 259.124C1847.23 255.838 1839.97 254.195 1831.72 254.195H1780.51V295.55Z" fill="#FAFAFA"/>
  <path fill-rule="evenodd" clip-rule="evenodd" d="M161.907 128.68C170.727 121.742 179.995 115.395 189.652 109.68C214.848 95.0659 242.678 85.5676 271.547 81.7302C300.416 77.8927 329.755 79.7916 357.882 87.3179C386.01 94.8441 412.372 107.85 435.458 125.589C458.544 143.328 477.899 165.452 492.414 190.693C503.1 209.307 511.07 229.353 516.083 250.225L443.951 291.431" fill="#FF0009"/>
  <path fill-rule="evenodd" clip-rule="evenodd" d="M217.712 506.385C182.586 492.288 151.672 469.404 127.934 439.924C104.195 410.445 88.4274 375.359 82.1408 338.028C75.8542 300.697 79.2596 262.372 92.0307 226.724C104.802 191.077 126.511 159.302 155.077 134.444L217.801 170.705" fill="#FF0009"/>
  <path fill-rule="evenodd" clip-rule="evenodd" d="M410.61 492.677C382.947 508.723 352.122 518.548 320.282 521.468C288.442 524.388 256.352 520.333 226.247 509.584L226.268 426.998L517.361 258.974C526.356 304.344 520.893 351.399 501.743 393.515C482.592 435.631 450.718 470.686 410.61 493.744" fill="#FF0009"/>
</svg>